<svg xmlns="http://www.w3.org/2000/svg" width="44" height="45" viewBox="0 0 44 45" fill="none">
	<path d="M19.7984 11.4417C17.3998 10.2738 14.7663 9.66886 12.0984 9.67287C9.33744 9.67287 6.72384 10.3109 4.39844 11.4417V33.4417C6.79709 32.2739 9.43062 31.6689 12.0984 31.6729C15.7702 31.6729 19.178 32.7949 21.9984 34.7199C24.9158 32.7294 28.3667 31.6673 31.8984 31.6729C34.6594 31.6729 37.273 32.3109 39.5984 33.4417V11.4417C37.1998 10.2738 34.5663 9.66886 31.8984 9.67287C29.1374 9.67287 26.5238 10.3109 24.1984 11.4417V27.2729C24.1984 27.8563 23.9667 28.4159 23.5541 28.8285C23.1415 29.2411 22.5819 29.4729 21.9984 29.4729C21.415 29.4729 20.8554 29.2411 20.4428 28.8285C20.0302 28.4159 19.7984 27.8563 19.7984 27.2729V11.4417Z" fill="url(#paint0_linear_673_20531)" />
	<defs>
		<linearGradient id="paint0_linear_673_20531" x1="23.7095" y1="34.7199" x2="21.2562" y2="9.89598" gradientUnits="userSpaceOnUse">
			<stop stop-color="#54AB72" />
			<stop offset="1" stop-color="#4E9447" />
		</linearGradient>
	</defs>
</svg>
