<svg xmlns="http://www.w3.org/2000/svg" width="54" height="55" viewBox="0 0 54 55" fill="none">
	<rect x="11.4688" y="0.597656" width="43.9672" height="43.9672" rx="9.05186" transform="rotate(15 11.4688 0.597656)" fill="#FBC75E" />
	<path d="M35.2516 25.7741L31.449 31.378C31.266 31.6477 30.9581 31.8566 30.581 31.9238C24.9171 32.9292 20.5394 31.9953 19.4717 31.7288C19.3054 31.6869 19.154 31.6125 19.0282 31.5109C18.45 31.0419 16.6688 29.4876 15.0408 26.9181C14.4012 25.908 13.7849 24.7415 13.2751 23.4226C13.2182 23.2767 13.1996 23.1192 13.2207 22.9614C13.2417 22.8036 13.3018 22.6495 13.3966 22.5101L17.1992 16.9063L35.2516 25.7741Z" fill="#365E7D" />
	<path d="M20.6755 18.6144L15.041 26.918C14.4012 25.9082 13.7852 24.7417 13.2752 23.4226C13.2183 23.2767 13.1998 23.1192 13.2208 22.9614C13.2418 22.8037 13.302 22.6496 13.3968 22.5103L17.1992 16.9067L20.6755 18.6144Z" fill="#2B4D66" />
	<path d="M35.2517 25.7742L33.4625 28.4109C27.7539 28.8272 23.5564 27.9243 22.3652 27.6264C22.251 27.5978 22.142 27.5578 22.0403 27.5078C21.9386 27.4579 21.8433 27.3976 21.7572 27.3277C20.8583 26.5989 17.8406 23.9574 15.41 19.543L17.1992 16.9062L35.2517 25.7742Z" fill="#2B4D66" />
	<path d="M41.1121 23.7368L39.836 25.6173C39.5847 25.9876 39.163 26.2742 38.6455 26.3661C30.8739 27.7457 24.867 26.4648 23.4024 26.0988C23.2882 26.0703 23.1791 26.0302 23.0775 25.9803C22.9758 25.9303 22.8805 25.8701 22.7944 25.8002C21.6895 24.9039 17.3824 21.1182 14.9008 14.702C14.7356 14.2747 14.8164 13.8207 15.0677 13.4503L16.3438 11.5698L41.1121 23.7368Z" fill="#365E7D" />
	<path d="M28.7279 17.6533L23.0774 25.9803C22.9752 25.9302 22.8802 25.8698 22.7943 25.8002C21.6895 24.904 17.3823 21.1183 14.9008 14.702C14.7356 14.2747 14.8164 13.8207 15.0677 13.4503L16.3438 11.5698L28.7279 17.6533Z" fill="#2B4D66" />
	<path d="M24.6793 24.2177C26.1438 24.584 32.1511 25.8649 39.9227 24.485C40.9571 24.3014 41.6098 23.3395 41.2796 22.4854C38.7982 16.0691 34.4908 12.2831 33.3857 11.3872C33.2136 11.2476 33.0062 11.1457 32.7781 11.0887C31.3136 10.7224 25.3063 9.44151 17.5347 10.8213C16.5003 11.005 15.8476 11.9669 16.1778 12.8209C18.6592 19.2373 22.9666 23.0233 24.0717 23.9193C24.2438 24.0588 24.4512 24.1607 24.6793 24.2177Z" fill="#365E7D" />
	<path d="M16.6926 23.4964C16.629 23.4652 16.5739 23.4228 16.5304 23.3715C16.4869 23.3203 16.4558 23.2612 16.439 23.1977C16.4222 23.1342 16.4199 23.0675 16.4323 23.0014C16.4448 22.9353 16.4716 22.8711 16.5114 22.8126L19.1779 18.8829C19.2666 18.7522 19.4131 18.6586 19.5785 18.6268L27.4218 17.1226C27.4959 17.1084 27.5715 17.1071 27.6443 17.1187C27.717 17.1304 27.7854 17.1548 27.8455 17.1906C27.9057 17.2265 27.9565 17.2729 27.995 17.3274C28.0335 17.3819 28.0589 17.4433 28.0698 17.5082C28.0919 17.6391 28.0536 17.7762 27.9633 17.8891C27.873 18.002 27.7382 18.0816 27.5884 18.1103L20.006 19.5645L17.4793 23.2881C17.399 23.4064 17.271 23.4948 17.1234 23.5339C16.9759 23.573 16.8209 23.5595 16.6926 23.4964Z" fill="#E7A561" />
	<path d="M15.7325 27.5292C16.1929 26.8508 16.6853 24.9529 15.9495 24.5915C15.2137 24.23 13.5282 25.5418 13.0679 26.2202C12.6076 26.8986 12.8309 27.7415 13.5667 28.103C14.3025 28.4644 15.2722 28.2076 15.7325 27.5292Z" fill="#F6E266" />
	<path d="M13.5669 28.1032C12.8309 27.7416 12.6075 26.8986 13.068 26.22C13.5282 25.5419 15.2138 24.2301 15.9498 24.5916C15.6906 24.4643 14.3913 25.9658 13.9311 26.644C13.4707 27.3226 13.3078 27.9759 13.5669 28.1032Z" fill="#FFC250" />
	<path d="M15.7496 24.8888C16.3002 25.1593 17.0259 24.9671 17.3704 24.4594C17.7149 23.9517 17.5478 23.3209 16.9971 23.0503C16.4464 22.7798 15.7207 22.9721 15.3762 23.4798C15.0317 23.9875 15.1989 24.6183 15.7496 24.8888Z" fill="#F6E266" />
	<path d="M16.1665 25.0056C16.0186 24.9914 15.8771 24.9519 15.7498 24.8891C15.1992 24.6186 15.032 23.9876 15.3765 23.4799C15.721 22.9723 16.4466 22.7804 16.9972 23.0509C17.1288 23.1155 17.2379 23.2004 17.3241 23.2997C16.8653 23.255 16.3822 23.4588 16.12 23.8452C15.8578 24.2315 15.892 24.6894 16.1665 25.0056Z" fill="#FFC250" />
	<path d="M28.0425 18.6618C28.9943 19.1294 30.0723 19.0569 30.4502 18.5C30.8282 17.9431 30.3629 17.1126 29.411 16.645C28.4591 16.1774 27.3811 16.2498 27.0032 16.8067C26.6253 17.3637 27.0906 18.1942 28.0425 18.6618Z" fill="#F6E266" />
	<path d="M26.0089 43.8857L23.1698 41.3836L19.4579 43.2567L20.1405 39.8353L20.6984 37.0364L27.249 37.666L26.6911 40.4649L26.0089 43.8857Z" fill="#DD636E" />
	<path d="M20.6876 37.0458L27.2388 37.6775L26.6795 40.4767L20.1283 39.8449L20.6876 37.0458Z" fill="#CB5769" />
	<path d="M38.422 40.6209L28.3089 39.649L26.3049 38.384L21.9874 39.0415L13.2811 38.2049L14.4923 32.1322L14.8605 30.2861L23.5665 31.1229L27.789 32.5879L29.888 31.7305L40.0003 32.7024C40.6929 32.769 41.167 33.511 41.3229 34.5883C41.4182 35.2452 41.3944 36.0266 41.229 36.8554C40.7928 39.0419 39.5357 40.728 38.422 40.6209Z" fill="#F9F6F6" />
	<path d="M41.323 34.5883C41.127 34.6496 40.931 34.6726 40.7388 34.6545L14.4923 32.1322L14.8605 30.2862L23.5665 31.1229L26.9636 32.775L29.8879 31.7305L40.0002 32.7024C40.693 32.769 41.1671 33.511 41.323 34.5883Z" fill="#E7ECF6" />
	<path d="M13.2688 38.2116C14.3831 38.3193 15.6412 36.6342 16.0788 34.4478C16.5164 32.2613 15.9678 30.4015 14.8535 30.2937C13.7392 30.186 12.4812 31.8711 12.0436 34.0576C11.606 36.244 12.1546 38.1038 13.2688 38.2116Z" fill="#E7ECF6" />
	<path d="M28.3089 39.6488L21.9874 39.0413C23.1018 39.1488 24.359 37.4627 24.7952 35.2762C24.9496 34.4993 24.9804 33.7635 24.9051 33.1331C24.7693 31.9892 24.285 31.1922 23.5665 31.1232L29.8879 31.7307C30.6065 31.7997 31.0906 32.5967 31.2266 33.7406C31.3018 34.3709 31.271 35.1068 31.1166 35.8837C30.6804 38.0702 29.4231 39.7563 28.3089 39.6488Z" fill="#DD636E" />
	<path d="M31.2266 33.7406L24.9051 33.1331C24.7693 31.9892 24.285 31.1922 23.5665 31.1232L29.8879 31.7307C30.6065 31.7997 31.0907 32.5968 31.2266 33.7406Z" fill="#CB5769" />
</svg>
