<svg xmlns="http://www.w3.org/2000/svg" width="61" height="61" viewBox="0 0 61 61" fill="none">
	<rect x="0.171875" y="22.8218" width="43.9672" height="43.9672" rx="9.05186" transform="rotate(-30 0.171875 22.8218)" fill="#3F80E1" />
	<path d="M29.1411 38.3733C29.0839 38.3861 29.0234 38.3832 28.9684 38.3648C28.9133 38.3464 28.8666 38.3135 28.835 38.271C28.8034 38.2285 28.7886 38.1785 28.7927 38.1283C28.7968 38.0781 28.8196 38.0303 28.8578 37.9919L32.2312 34.6132L28.0887 38.1375C28.0372 38.1801 27.9682 38.2041 27.8963 38.2044C27.8244 38.2047 27.7552 38.1812 27.7032 38.1389C27.6512 38.0967 27.6205 38.0389 27.6175 37.9778C27.6146 37.9167 27.6397 37.857 27.6875 37.8113L29.4653 36.1529L27.8865 37.4953C27.8352 37.5373 27.767 37.561 27.6959 37.5615C27.6248 37.562 27.5561 37.5393 27.5041 37.4981C27.4521 37.4567 27.4208 37.4 27.4164 37.3396C27.4121 37.2792 27.4351 37.2197 27.4807 37.1733L32.8311 31.9553L27.4735 36.5125C27.4216 36.5544 27.3528 36.5776 27.2813 36.5773C27.2098 36.5771 27.1412 36.5533 27.0898 36.511C27.0383 36.4688 27.0079 36.4113 27.005 36.3505C27.0021 36.2897 27.0269 36.2303 27.0741 36.1847L27.246 36.0277C27.1939 36.0694 27.1248 36.0924 27.0532 36.0919C26.9815 36.0913 26.913 36.0672 26.8617 36.0247C26.8104 35.9821 26.7805 35.9243 26.7781 35.8634C26.7757 35.8025 26.8011 35.7432 26.8489 35.6978L31.8011 30.972L26.7161 35.3002C26.6647 35.3426 26.596 35.3664 26.5244 35.3668C26.4529 35.3671 26.3839 35.344 26.3319 35.3021C26.28 35.2602 26.249 35.2029 26.2456 35.142C26.2421 35.0812 26.2664 35.0216 26.3133 34.9756L31.2838 30.2615L26.1298 34.647C26.0784 34.6902 26.0092 34.7146 25.937 34.715C25.8649 34.7155 25.7953 34.6921 25.7431 34.6496C25.6909 34.6072 25.6602 34.5491 25.6575 34.4877C25.6547 34.4264 25.6802 34.3665 25.7285 34.3208L29.8319 30.49L25.5487 34.1342C25.4975 34.1772 25.4287 34.2017 25.3568 34.2025C25.2849 34.2032 25.2154 34.1802 25.163 34.1383C25.1106 34.0964 25.0794 34.0388 25.0758 33.9777C25.0723 33.9166 25.0967 33.8567 25.144 33.8106L31.2107 28.0043L24.6756 33.5626C24.6237 33.6048 24.5547 33.6282 24.4829 33.628C24.4112 33.6278 24.3424 33.604 24.2908 33.5615C24.2392 33.5191 24.209 33.4614 24.2063 33.4004C24.2037 33.3394 24.2288 33.2799 24.2766 33.2344L24.9187 32.653L24.184 33.2781C24.1327 33.3214 24.0635 33.346 23.9912 33.3466C23.9189 33.3473 23.8492 33.3239 23.7968 33.2815C23.7445 33.2391 23.7136 33.1809 23.7108 33.1195C23.708 33.058 23.7335 32.998 23.7819 32.9523L29.3085 27.7524L23.3627 32.8116C23.3375 32.834 23.3073 32.8521 23.2739 32.8646C23.2405 32.8771 23.2046 32.8839 23.1681 32.8847C23.1316 32.8854 23.0953 32.8799 23.0613 32.8687C23.0272 32.8575 22.9961 32.8406 22.9697 32.8192C22.9433 32.7977 22.9222 32.7721 22.9074 32.7437C22.8927 32.7152 22.8847 32.6846 22.8839 32.6536C22.883 32.6225 22.8894 32.5917 22.9026 32.5627C22.9158 32.5337 22.9356 32.5073 22.9608 32.4848L27.9022 27.8847L22.6088 32.3861C22.5571 32.4292 22.4876 32.4534 22.4152 32.4536C22.3428 32.4537 22.2731 32.4298 22.2211 32.387C22.1691 32.3441 22.1389 32.2856 22.1368 32.2239C22.1348 32.1623 22.1611 32.1025 22.2102 32.0571L23.7037 30.7046L22.1427 32.0324C22.0909 32.0752 22.0216 32.0992 21.9495 32.0993C21.8773 32.0994 21.8079 32.0755 21.7561 32.0329C21.7042 31.9902 21.6739 31.932 21.6716 31.8706C21.6693 31.8093 21.6951 31.7495 21.7436 31.7041L24.0565 29.599L21.6637 31.6348C21.6122 31.6771 21.5435 31.7009 21.4719 31.7011C21.4004 31.7014 21.3314 31.6781 21.2795 31.6362C21.2276 31.5943 21.1967 31.5369 21.1933 31.4761C21.1899 31.4153 21.2142 31.3557 21.2611 31.3097L27.5517 25.3568L20.9551 30.9699C20.9302 30.9928 20.9001 31.0113 20.8666 31.0243C20.8332 31.0373 20.797 31.0444 20.7603 31.0454C20.7236 31.0464 20.687 31.0412 20.6526 31.0301C20.6183 31.0189 20.5869 31.0021 20.5602 30.9806C20.5336 30.959 20.5122 30.9332 20.4974 30.9046C20.4826 30.876 20.4746 30.8451 20.4739 30.8139C20.4732 30.7826 20.4798 30.7515 20.4933 30.7225C20.5068 30.6934 20.5269 30.6669 20.5526 30.6445L26.184 25.355L20.3926 30.2827C20.3408 30.325 20.2717 30.3486 20.1998 30.3485C20.128 30.3484 20.059 30.3246 20.0073 30.2821C19.9556 30.2396 19.9252 30.1817 19.9227 30.1206C19.9201 30.0594 19.9455 29.9999 19.9936 29.9544L21.9109 28.2089L20.0279 29.8124C19.9762 29.8558 19.9066 29.8804 19.834 29.8807C19.7614 29.881 19.6915 29.8571 19.6393 29.8142C19.5872 29.7712 19.5568 29.7125 19.5548 29.6508C19.5529 29.589 19.5794 29.529 19.6287 29.4837L21.1071 28.1398L19.7574 29.288C19.7235 29.3179 19.681 29.3396 19.6341 29.3511C19.5872 29.3626 19.5376 29.3634 19.4902 29.3534C19.443 29.3433 19.3996 29.3228 19.3646 29.294C19.3295 29.2652 19.304 29.2291 19.2905 29.1892C19.2771 29.1494 19.2762 29.1072 19.2879 29.067C19.2997 29.0267 19.3236 28.9898 19.3574 28.9599L21.2773 27.2051L19.4727 28.7417C19.4211 28.7839 19.3523 28.8075 19.2807 28.8076C19.2091 28.8077 19.1402 28.7842 19.0885 28.7421C19.0367 28.7001 19.006 28.6426 19.0029 28.5817C18.9997 28.5209 19.0243 28.4613 19.0715 28.4155L22.7486 24.9915L19.1629 28.0395C19.0941 28.1004 18.9925 28.1253 18.896 28.105C18.8486 28.0952 18.8052 28.0748 18.77 28.0461C18.7348 28.0173 18.7091 27.9812 18.6955 27.9413C18.682 27.9015 18.6811 27.8593 18.6928 27.819C18.7046 27.7787 18.7286 27.7418 18.7625 27.7119L20.5986 26.0212L19.0076 27.3801C18.9569 27.4241 18.8879 27.4494 18.8155 27.4508C18.743 27.4521 18.6729 27.4293 18.6199 27.3872C18.567 27.3452 18.5354 27.2872 18.532 27.2256C18.5286 27.164 18.5537 27.1037 18.6018 27.0576L23.7514 22.0113L18.8126 26.2136C18.762 26.2591 18.6922 26.2857 18.6186 26.2874C18.5449 26.2892 18.4735 26.266 18.42 26.223C18.3665 26.1799 18.3353 26.1204 18.3333 26.0578C18.3312 25.9951 18.3586 25.9343 18.4092 25.8888L21.1681 23.267L18.8098 25.2725C18.7585 25.315 18.6899 25.339 18.6183 25.3395C18.5467 25.34 18.4776 25.317 18.4255 25.2753C18.3734 25.2335 18.3423 25.1762 18.3386 25.1153C18.335 25.0545 18.3591 24.9948 18.4059 24.9487L20.5539 22.8845L18.9609 24.2394C18.9107 24.282 18.8433 24.3066 18.7724 24.3082C18.7016 24.3099 18.6327 24.2884 18.5799 24.2482C18.5271 24.2081 18.4943 24.1522 18.4883 24.0921C18.4823 24.0321 18.5035 23.9723 18.5476 23.9251L21.3937 20.8864L19.5587 22.4476C19.5087 22.491 19.4411 22.5163 19.3698 22.5183C19.2984 22.5203 19.2289 22.4989 19.1757 22.4585C19.1224 22.4181 19.0895 22.3618 19.0837 22.3013C19.078 22.2408 19.0998 22.1807 19.1447 22.1335L20.4268 20.759C20.3927 20.7475 20.3619 20.7299 20.3363 20.7075C20.2843 20.6633 20.255 20.6033 20.2548 20.5406C20.2547 20.478 20.2837 20.4179 20.3356 20.3735L22.5253 18.5108C22.5753 18.4676 22.643 18.4424 22.7143 18.4405C22.7855 18.4385 22.8549 18.46 22.9081 18.5004C22.9613 18.5407 22.9942 18.5969 23 18.6573C23.0058 18.7178 22.984 18.7778 22.9392 18.8249L22.5887 19.2009L24.4862 17.5867C24.5366 17.545 24.6037 17.5211 24.6741 17.5198C24.7444 17.5186 24.8126 17.5401 24.8651 17.58C24.9175 17.6199 24.9502 17.6752 24.9565 17.7348C24.9628 17.7944 24.9424 17.8538 24.8992 17.9011L22.052 20.9407L26.6578 17.0251C26.7088 16.9817 26.7778 16.9569 26.85 16.9559C26.9222 16.955 26.992 16.978 27.0446 17.0201C27.0971 17.0622 27.1284 17.1201 27.1317 17.1814C27.135 17.2428 27.11 17.3029 27.0622 17.3489L24.9149 19.4088L27.8353 16.924C27.8867 16.882 27.9552 16.8584 28.0265 16.8582C28.0979 16.858 28.1665 16.8812 28.2183 16.9229C28.2702 16.9646 28.3011 17.0217 28.3048 17.0824C28.3085 17.143 28.2846 17.2025 28.238 17.2486L25.4804 19.8713L28.9536 16.9168C29.0582 16.8213 29.234 16.8159 29.3461 16.9051C29.3728 16.9262 29.3943 16.9516 29.4094 16.9799C29.4246 17.0081 29.433 17.0386 29.4343 17.0696C29.4356 17.1006 29.4297 17.1315 29.4169 17.1606C29.4041 17.1897 29.3848 17.2163 29.3599 17.239L24.2091 22.2836L30.3479 17.0606C30.3992 17.0165 30.4688 16.9914 30.5418 16.9906C30.6147 16.9899 30.6851 17.0136 30.7377 17.0566C30.7903 17.0996 30.8209 17.1584 30.8229 17.2205C30.8249 17.2825 30.7982 17.3427 30.7484 17.3881L28.9097 19.0794L31.0757 17.2356C31.1009 17.2131 31.1311 17.1951 31.1645 17.1826C31.1979 17.1701 31.2339 17.1633 31.2703 17.1627C31.3068 17.162 31.3431 17.1674 31.3771 17.1787C31.4111 17.1899 31.4422 17.2067 31.4685 17.2282C31.4949 17.2497 31.516 17.2753 31.5307 17.3037C31.5454 17.3321 31.5534 17.3627 31.5542 17.3938C31.555 17.4248 31.5486 17.4557 31.5354 17.4846C31.5222 17.5135 31.5024 17.54 31.4772 17.5624L27.803 20.9835L31.9424 17.4609C31.9938 17.4171 32.0635 17.3922 32.1363 17.3916C32.2091 17.3911 32.2792 17.4148 32.3316 17.4579C32.384 17.5009 32.4144 17.5596 32.4164 17.6216C32.4184 17.6835 32.3917 17.7436 32.3422 17.789L30.412 19.5504L32.5714 17.7136C32.6233 17.6713 32.6924 17.6477 32.7642 17.6479C32.8361 17.648 32.905 17.6718 32.9567 17.7143C33.0084 17.7567 33.0388 17.8146 33.0413 17.8758C33.0439 17.9369 33.0184 17.9965 32.9704 18.042L31.494 19.3855L33.1761 17.9545C33.228 17.9107 33.298 17.886 33.3711 17.8856C33.4442 17.8851 33.5146 17.9091 33.5672 17.9523C33.6198 17.9955 33.6505 18.0544 33.6526 18.1166C33.6547 18.1788 33.6282 18.2392 33.5786 18.2849L31.6602 20.0262L33.7422 18.2562C33.7929 18.2108 33.8627 18.1843 33.9363 18.1827C34.0098 18.1811 34.0812 18.2044 34.1345 18.2476C34.161 18.2689 34.1823 18.2945 34.1971 18.3229C34.2119 18.3512 34.2201 18.3818 34.221 18.4128C34.2219 18.4438 34.2157 18.4747 34.2026 18.5037C34.1895 18.5326 34.1699 18.5591 34.1447 18.5816L28.5125 23.8701L34.5517 18.7314C34.6029 18.6878 34.6721 18.6629 34.7445 18.662C34.8169 18.6612 34.8869 18.6844 34.9395 18.7268C34.9921 18.7692 35.0231 18.8274 35.026 18.889C35.0289 18.9505 35.0034 19.0106 34.955 19.0565L28.6644 25.0092L35.3309 19.3376C35.3825 19.2938 35.4521 19.269 35.5249 19.2685C35.5977 19.268 35.6679 19.2918 35.7202 19.3348C35.7726 19.3779 35.803 19.4366 35.8049 19.4985C35.8068 19.5604 35.7801 19.6205 35.7305 19.6658L33.4126 21.7749L35.8131 19.7327C35.8384 19.7103 35.8687 19.6923 35.9022 19.6799C35.9357 19.6674 35.9718 19.6607 36.0084 19.6602C36.0449 19.6596 36.0812 19.6652 36.1152 19.6766C36.1493 19.688 36.1803 19.705 36.2066 19.7266C36.2328 19.7483 36.2538 19.7741 36.2683 19.8027C36.2828 19.8312 36.2906 19.8619 36.2911 19.893C36.2916 19.9241 36.2849 19.955 36.2714 19.9839C36.2579 20.0128 36.2378 20.0391 36.2123 20.0614L34.7189 21.4146L36.1994 20.1544C36.2246 20.1319 36.2548 20.1139 36.2882 20.1013C36.3216 20.0888 36.3575 20.082 36.394 20.0813C36.4305 20.0806 36.4668 20.086 36.5009 20.0972C36.5349 20.1085 36.566 20.1253 36.5924 20.1468C36.6188 20.1682 36.6399 20.1939 36.6547 20.2223C36.6694 20.2507 36.6774 20.2813 36.6783 20.3124C36.6791 20.3434 36.6727 20.3743 36.6595 20.4032C36.6463 20.4322 36.6265 20.4587 36.6013 20.4811L31.663 25.082L36.732 20.7682C36.7831 20.724 36.8526 20.6986 36.9255 20.6975C36.9984 20.6964 37.0688 20.7197 37.1217 20.7624C37.1746 20.8052 37.2056 20.8638 37.208 20.9258C37.2105 20.9878 37.1842 21.0482 37.1349 21.0938L31.607 26.294L37.2206 21.518C37.2724 21.4753 37.3417 21.4514 37.4139 21.4514C37.486 21.4514 37.5554 21.4753 37.6072 21.5181C37.659 21.5608 37.6892 21.619 37.6915 21.6804C37.6937 21.7417 37.6678 21.8014 37.6192 21.8468L36.9743 22.4303L37.4958 21.9865C37.5463 21.9409 37.6161 21.9142 37.6897 21.9123C37.7634 21.9104 37.8349 21.9335 37.8885 21.9765C37.9152 21.9977 37.9366 22.0232 37.9516 22.0516C37.9665 22.0799 37.9748 22.1104 37.9759 22.1415C37.977 22.1725 37.9709 22.2034 37.9579 22.2325C37.945 22.2615 37.9254 22.288 37.9003 22.3106L31.8345 28.117L37.8951 22.9601C37.9463 22.9161 38.0157 22.8908 38.0885 22.8899C38.1613 22.889 38.2317 22.9124 38.2844 22.9552C38.3371 22.9979 38.3679 23.0566 38.3702 23.1185C38.3726 23.1805 38.3462 23.2407 38.2968 23.2862L34.195 27.1163L38.1486 23.7527C38.1994 23.7076 38.269 23.6814 38.3424 23.6799C38.4157 23.6783 38.4868 23.7015 38.5402 23.7444C38.5935 23.7873 38.6247 23.8464 38.627 23.9088C38.6293 23.9712 38.6024 24.0319 38.5523 24.0775L33.5782 28.7938L38.2838 24.7898C38.3347 24.7454 38.404 24.7199 38.4768 24.7186C38.5496 24.7174 38.6201 24.7405 38.6731 24.783C38.7261 24.8255 38.7573 24.884 38.76 24.9459C38.7628 25.0078 38.7369 25.0682 38.6878 25.114L33.7359 29.84L38.2802 25.9709C38.3318 25.9275 38.4013 25.9031 38.4738 25.9027C38.5463 25.9024 38.6161 25.9262 38.6683 25.9691C38.7204 26.0119 38.7508 26.0704 38.753 26.1321C38.7551 26.1938 38.7288 26.2537 38.6797 26.2991L38.2742 26.6688C38.3313 26.6437 38.397 26.6362 38.4599 26.6477C38.5228 26.6592 38.579 26.6889 38.6191 26.7317C38.6591 26.7746 38.6804 26.8279 38.6793 26.8827C38.6783 26.9374 38.6549 26.9901 38.6132 27.0318L33.262 32.2519L37.6053 28.5567C37.6304 28.5342 37.6606 28.5162 37.6939 28.5037C37.7272 28.4911 37.7632 28.4843 37.7996 28.4836C37.8361 28.4829 37.8723 28.4882 37.9063 28.4994C37.9403 28.5106 37.9714 28.5274 37.9978 28.5488C38.0242 28.5702 38.0453 28.5958 38.0601 28.6242C38.0748 28.6526 38.0828 28.6832 38.0837 28.7142C38.0846 28.7452 38.0782 28.776 38.0651 28.805C38.0519 28.8339 38.0322 28.8603 38.007 28.8828L36.2306 30.5399L36.668 30.1686C36.7189 30.1265 36.7868 30.1026 36.8577 30.1017C36.9287 30.1009 36.9973 30.1232 37.0496 30.164C37.1018 30.2049 37.1337 30.2613 37.1386 30.3215C37.1435 30.3818 37.1212 30.4414 37.0761 30.4881L33.7024 33.8693L35.8881 32.0089C35.9392 31.9659 36.0078 31.9415 36.0796 31.9407C36.1514 31.94 36.2208 31.9629 36.2732 32.0048C36.3256 32.0465 36.3569 32.104 36.3606 32.165C36.3643 32.226 36.3401 32.2858 36.293 32.332L35.8589 32.7523C35.916 32.7323 35.9793 32.729 36.0388 32.743C36.0983 32.757 36.1506 32.7874 36.1875 32.8295C36.2244 32.8715 36.2438 32.9229 36.2426 32.9753C36.2414 33.0278 36.2197 33.0784 36.1809 33.1192L35.0484 34.3203L35.7364 33.7348C35.784 33.6927 35.8482 33.6672 35.9166 33.663C35.9851 33.6589 36.0529 33.6764 36.1071 33.7123C36.1612 33.7481 36.1979 33.7998 36.2099 33.8572C36.222 33.9147 36.2086 33.974 36.1724 34.0235L35.0919 35.5482L35.9448 34.8205C35.9921 34.7803 36.0548 34.756 36.1215 34.7519C36.1881 34.7479 36.2543 34.7645 36.3078 34.7986C36.3612 34.8327 36.3984 34.8821 36.4126 34.9377C36.4267 34.9933 36.4168 35.0513 36.3846 35.1012L36.1578 35.4539C36.1988 35.4261 36.2484 35.4088 36.3005 35.4039C36.3527 35.3991 36.4055 35.4069 36.4526 35.4265C36.4998 35.4461 36.5395 35.4767 36.567 35.5147C36.5946 35.5527 36.6088 35.5966 36.6081 35.6413L36.6025 36.0576C36.6556 36.0677 36.7038 36.0907 36.7417 36.1237C36.7936 36.1681 36.8226 36.2283 36.8224 36.2909C36.8221 36.3535 36.7927 36.4135 36.7405 36.4577L36.5134 36.6492C36.4743 36.6823 36.4245 36.7048 36.3704 36.7137C36.3162 36.7227 36.2602 36.7177 36.2094 36.6995C36.1587 36.6812 36.1155 36.6505 36.0854 36.6112C36.0552 36.572 36.0394 36.5261 36.04 36.4792L36.0434 36.2177L35.1785 36.9531C35.1313 36.9933 35.0686 37.0177 35.0019 37.0218C34.9353 37.0259 34.8691 37.0094 34.8156 36.9754C34.7621 36.9413 34.7249 36.892 34.7106 36.8364C34.6964 36.7809 34.7062 36.7228 34.7383 36.6729L34.9624 36.3253L33.8755 37.2492C33.8279 37.2912 33.7638 37.3167 33.6954 37.3209C33.627 37.325 33.5592 37.3075 33.5051 37.2716C33.4509 37.2358 33.4143 37.1843 33.4021 37.1268C33.39 37.0694 33.4033 37.0101 33.4395 36.9605L34.5226 35.4382L31.847 37.7151C31.7967 37.7578 31.7292 37.7825 31.6582 37.7842C31.5872 37.7859 31.5182 37.7644 31.4652 37.7241C31.4124 37.6838 31.3796 37.6278 31.3738 37.5676C31.3679 37.5073 31.3894 37.4475 31.4338 37.4003L32.5665 36.2003L30.3898 38.0531C30.3387 38.0958 30.2702 38.12 30.1985 38.1207C30.1269 38.1214 30.0577 38.0985 30.0054 38.0568C29.9532 38.0151 29.9219 37.9578 29.9181 37.8969C29.9143 37.8361 29.9383 37.7763 29.9851 37.7301L30.2028 37.5195L29.2698 38.313C29.2341 38.3426 29.1896 38.3634 29.1411 38.3732L29.1411 38.3733Z" fill="#FFD67B" />
	<path d="M34.5468 43.9586C34.4912 43.9712 34.4324 43.9689 34.3785 43.9519C34.3246 43.9349 34.2782 43.9041 34.2458 43.8637C34.2133 43.8233 34.1963 43.7753 34.1973 43.7264C34.1982 43.6775 34.217 43.63 34.2511 43.5906L34.8366 42.9077L33.4725 44.0695C33.4233 44.1109 33.3577 44.1352 33.2886 44.1376C33.2195 44.1401 33.1518 44.1206 33.0987 44.0829C33.0456 44.045 33.0111 43.9917 33.0018 43.9333C32.9925 43.875 33.0092 43.8158 33.0485 43.7673L34.7364 41.7191L32.2194 43.8585C32.1703 43.9003 32.1044 43.9248 32.0349 43.9273C31.9655 43.9298 31.8974 43.91 31.8443 43.8719C31.7912 43.8338 31.7568 43.7802 31.7479 43.7216C31.7389 43.663 31.7561 43.6037 31.7961 43.5554L33.2717 41.7771L31.3008 43.454C31.2507 43.496 31.1838 43.5203 31.1134 43.522C31.0431 43.5238 30.9746 43.5027 30.9218 43.4631C30.8691 43.4235 30.836 43.3683 30.8292 43.3087C30.8224 43.2491 30.8424 43.1896 30.8852 43.142L31.2273 42.7682L30.8026 43.1297C30.7536 43.1712 30.6883 43.1956 30.6194 43.1983C30.5504 43.2011 30.4827 43.1819 30.4295 43.1445C30.3763 43.107 30.3413 43.0541 30.3315 42.996C30.3217 42.9379 30.3376 42.8787 30.3763 42.8301L30.887 42.192L30.3516 42.6473C30.304 42.6875 30.241 42.7116 30.1742 42.7153C30.1074 42.719 30.0412 42.7021 29.9879 42.6676C29.9346 42.6331 29.8977 42.5833 29.8841 42.5275C29.8705 42.4717 29.8811 42.4136 29.9138 42.3639L30.1864 41.9515L29.9972 42.1122C29.9065 42.1878 29.7671 42.2014 29.6587 42.1455C29.6059 42.1182 29.5654 42.0768 29.5434 42.0277C29.5214 41.9787 29.5191 41.9248 29.5371 41.8745L29.6678 41.5282C29.6143 41.5256 29.5628 41.5098 29.5196 41.4828C29.4765 41.4558 29.4434 41.4188 29.4243 41.3761C29.4053 41.3335 29.4012 41.2871 29.4125 41.2425C29.4238 41.1979 29.4499 41.1571 29.4878 41.1249L30.025 40.6683C30.0691 40.6315 30.1263 40.6084 30.1876 40.6023C30.2489 40.5963 30.3108 40.6078 30.3636 40.635C30.4164 40.6623 30.457 40.7037 30.4789 40.7528C30.5009 40.8019 30.503 40.8558 30.485 40.9061L30.4168 41.0873L31.235 40.3949C31.2825 40.3546 31.3456 40.3302 31.4125 40.3264C31.4795 40.3225 31.5458 40.3394 31.5993 40.3739C31.6527 40.4084 31.6897 40.4583 31.7033 40.5142C31.7169 40.5702 31.7062 40.6284 31.6733 40.6782L31.3982 41.0921L32.5774 40.0895C32.6263 40.0482 32.6915 40.0239 32.7603 40.0213C32.8291 40.0186 32.8967 40.0378 32.9498 40.0751C33.0029 40.1124 33.0378 40.1652 33.0478 40.2232C33.0577 40.2813 33.0419 40.3403 33.0035 40.389L32.4955 41.0215L33.9695 39.7677C34.0196 39.7258 34.0865 39.7017 34.1566 39.7001C34.2268 39.6985 34.2951 39.7196 34.3478 39.7591C34.4004 39.7986 34.4335 39.8536 34.4405 39.913C34.4474 39.9724 34.4276 40.0319 34.3851 40.0794L34.0421 40.4512L35.172 39.4906C35.2212 39.4492 35.2868 39.4248 35.356 39.4224C35.4252 39.42 35.4929 39.4397 35.5459 39.4776C35.5989 39.5154 35.6334 39.5688 35.6426 39.6272C35.6518 39.6856 35.635 39.7448 35.5955 39.7932L34.1238 41.5726L36.5966 39.4662C36.6457 39.4246 36.7114 39.4002 36.7806 39.3977C36.8498 39.3952 36.9177 39.4148 36.9708 39.4527C37.0239 39.4907 37.0584 39.5441 37.0676 39.6026C37.0768 39.6611 37.0599 39.7204 37.0203 39.7689L35.3319 41.8172L36.9722 40.4218C37.0216 40.3798 37.0879 40.3552 37.1576 40.3529C37.2274 40.3506 37.2957 40.3708 37.3488 40.4094C37.4018 40.448 37.4358 40.5023 37.444 40.5613C37.4522 40.6203 37.4339 40.6798 37.3929 40.7278L36.802 41.4168C36.8574 41.3788 36.9278 41.3602 36.9987 41.365C37.0697 41.3698 37.1358 41.3975 37.1834 41.4426C37.2309 41.4876 37.2563 41.5464 37.2544 41.6069C37.2525 41.6674 37.2235 41.725 37.1732 41.7678L34.6712 43.8964C34.6371 43.9263 34.5941 43.9478 34.5468 43.9586Z" fill="#CAD0D7" />
	<path d="M35.0411 40.4428C34.9857 40.4554 34.9271 40.4532 34.8733 40.4364C34.8195 40.4196 34.7731 40.3891 34.7404 40.349C34.7078 40.3089 34.6907 40.2612 34.6912 40.2124C34.6917 40.1637 34.7099 40.1163 34.7433 40.0767L34.7798 40.0336L34.0799 40.6286C33.9869 40.7071 33.8423 40.72 33.7325 40.659C33.6227 40.598 33.578 40.4801 33.625 40.3762L34.1305 39.2717L31.9673 41.1087C31.9223 41.1464 31.8635 41.17 31.8007 41.1755C31.7378 41.181 31.6747 41.1681 31.6216 41.1389C31.5685 41.1098 31.5287 41.0661 31.5088 41.0151C31.4888 40.9641 31.4899 40.9088 31.5118 40.8584L32.0099 39.7413L29.8318 41.5955C29.7862 41.6343 29.7262 41.6584 29.662 41.6636C29.5978 41.6689 29.5334 41.6549 29.48 41.6242C29.4266 41.5934 29.3875 41.5477 29.3693 41.4951C29.3511 41.4424 29.355 41.386 29.3804 41.3356L29.9094 40.2853L28.0743 41.8495C28.0255 41.8916 27.9599 41.9167 27.8905 41.9198C27.8211 41.9228 27.7528 41.9036 27.6992 41.8658C27.6457 41.8281 27.6107 41.7747 27.6011 41.7161C27.5916 41.6575 27.6083 41.598 27.6478 41.5494L27.7169 41.4638L27.5835 41.5768C27.5401 41.6137 27.4836 41.6374 27.4227 41.6441C27.3619 41.6508 27.3001 41.6401 27.2471 41.6138C27.1941 41.5875 27.1528 41.5471 27.1297 41.4987C27.1066 41.4503 27.1029 41.3968 27.1193 41.3465L27.3278 40.712C27.2739 40.753 27.2033 40.7745 27.1311 40.772C27.0588 40.7694 26.9906 40.7429 26.9409 40.6982C26.8912 40.6536 26.8639 40.5942 26.8648 40.5327C26.8657 40.4713 26.8949 40.4125 26.946 40.369L27.6839 39.7407C27.7273 39.7037 27.7838 39.68 27.8447 39.6733C27.9057 39.6666 27.9675 39.6773 28.0205 39.7037C28.0736 39.73 28.1149 39.7706 28.138 39.8191C28.1611 39.8676 28.1646 39.9212 28.148 39.9716L27.9401 40.6061L29.4315 39.3365C29.4806 39.2955 29.5457 39.2714 29.6144 39.2689C29.6831 39.2664 29.7504 39.2857 29.8034 39.3229C29.8563 39.3603 29.8911 39.4129 29.9011 39.4708C29.911 39.5287 29.8954 39.5876 29.8574 39.6363L29.7902 39.7206L30.5383 39.0837C30.5839 39.0449 30.644 39.0208 30.7082 39.0156C30.7725 39.0104 30.8368 39.0244 30.8902 39.0552C30.9437 39.086 30.9829 39.1316 31.0011 39.1842C31.0193 39.2369 31.0154 39.2933 30.99 39.3438L30.4584 40.3944L32.5328 38.6299C32.5777 38.5921 32.6366 38.5684 32.6995 38.5629C32.7624 38.5573 32.8256 38.5703 32.8788 38.5995C32.9319 38.6287 32.9717 38.6724 32.9916 38.7235C33.0116 38.7746 33.0104 38.8299 32.9883 38.8804L32.4906 39.9972L34.6738 38.1434C34.7666 38.0642 34.912 38.0512 35.022 38.1122C35.132 38.1731 35.1769 38.2914 35.1295 38.3955L34.623 39.4989L36.7835 37.6608C36.8329 37.6193 36.8988 37.595 36.9682 37.5928C37.0376 37.5906 37.1054 37.6106 37.1583 37.6489C37.2112 37.687 37.2454 37.7407 37.2542 37.7993C37.2629 37.8578 37.2456 37.9171 37.2056 37.9653L37.1698 38.0073L37.7337 37.5284C37.7805 37.489 37.8422 37.465 37.9079 37.4607C37.9735 37.4564 38.0389 37.4721 38.0922 37.5049C38.1455 37.5378 38.1834 37.5857 38.199 37.6401C38.2146 37.6945 38.207 37.7519 38.1775 37.802L37.6942 38.6117L38.5182 37.9108C38.5625 37.8731 38.6205 37.8493 38.6827 37.8431C38.745 37.837 38.8078 37.849 38.861 37.8771C38.9143 37.9052 38.9547 37.9478 38.9759 37.998C38.9971 38.0482 38.9977 38.1029 38.9777 38.1534L38.7853 38.6376C38.8357 38.6195 38.8913 38.6148 38.9449 38.624C38.9984 38.6333 39.0475 38.656 39.0856 38.6894C39.1114 38.7113 39.1319 38.7373 39.1459 38.766C39.1599 38.7946 39.1671 38.8253 39.1671 38.8563C39.1672 38.8873 39.16 38.9181 39.1461 38.9467C39.1322 38.9754 39.1118 39.0015 39.0861 39.0234L38.354 39.6463C38.3098 39.6839 38.2519 39.7077 38.1897 39.7138C38.1275 39.7199 38.0648 39.7079 38.0116 39.6798C37.9584 39.6517 37.9179 39.6092 37.8967 39.5591C37.8755 39.5089 37.8748 39.4542 37.8947 39.4037L38.0712 38.9594L36.8494 39.9956C36.8027 40.0351 36.7411 40.0591 36.6755 40.0634C36.6099 40.0678 36.5446 40.0521 36.4913 40.0192C36.4379 39.9864 36.4 39.9385 36.3843 39.8841C36.3686 39.8297 36.3761 39.7722 36.4056 39.7221L36.8885 38.9128L35.1661 40.3818C35.1315 40.4115 35.0883 40.4323 35.0411 40.4428Z" fill="#CAD0D7" />
	<path d="M29.4246 39.7655C29.3698 39.778 29.3117 39.7758 29.2584 39.7593C29.205 39.7428 29.1589 39.7127 29.1263 39.6732C29.0935 39.6337 29.0758 39.5866 29.0755 39.5383C29.0753 39.4899 29.0925 39.4427 29.1248 39.4029L29.2972 39.1905L28.3795 39.9691C28.2812 40.0573 28.1203 40.0674 28.0076 39.9927C27.8949 39.9181 27.8673 39.7828 27.9437 39.6801L28.3878 39.0602L27.3449 39.9501C27.2971 39.9912 27.2333 40.016 27.1656 40.0197C27.0978 40.0235 27.0308 40.006 26.9772 39.9705C26.9236 39.9351 26.887 39.8842 26.8745 39.8274C26.862 39.7706 26.8744 39.7119 26.9094 39.6624L27.1654 39.2958L26.8668 39.5498C26.8214 39.5885 26.7616 39.6126 26.6977 39.6179C26.6338 39.6233 26.5696 39.6097 26.5162 39.5793C26.4627 39.549 26.4233 39.5038 26.4046 39.4515C26.386 39.3991 26.3892 39.3429 26.4138 39.2924L26.5823 38.9473C26.5261 38.9503 26.47 38.9386 26.4217 38.9138C26.3734 38.8891 26.3352 38.8524 26.312 38.8086C26.2887 38.7649 26.2817 38.7162 26.2918 38.669C26.3019 38.6218 26.3287 38.5784 26.3686 38.5444L27.1063 37.9164C27.1515 37.8776 27.2111 37.8533 27.2749 37.8476C27.3388 37.842 27.403 37.8553 27.4566 37.8854C27.5102 37.9158 27.5497 37.961 27.5684 38.0134C27.5872 38.0658 27.5839 38.1221 27.5592 38.1727L27.4602 38.3749L28.3393 37.63C28.3872 37.5893 28.4508 37.5649 28.5183 37.5613C28.5858 37.5577 28.6525 37.5752 28.7059 37.6105C28.7594 37.6458 28.7959 37.6965 28.8085 37.7531C28.8211 37.8098 28.8089 37.8683 28.7743 37.9178L28.5187 38.2838L29.6366 37.3342C29.684 37.2916 29.7484 37.2656 29.8172 37.2612C29.886 37.2568 29.9543 37.2744 30.0087 37.3105C30.063 37.3466 30.0997 37.3986 30.1115 37.4564C30.1233 37.5141 30.1095 37.5736 30.0726 37.6232L29.6248 38.2424L31.0836 37.0043C31.1328 36.9635 31.198 36.9397 31.2666 36.9374C31.3352 36.9351 31.4024 36.9546 31.4551 36.992C31.5078 37.0295 31.5424 37.0822 31.5521 37.1401C31.5619 37.1979 31.5461 37.2568 31.5079 37.3053L31.3356 37.5178L32.2526 36.7378C32.2977 36.6994 32.3571 36.6754 32.4206 36.6698C32.4841 36.6643 32.5479 36.6775 32.6013 36.7073C32.6546 36.7372 32.6943 36.7817 32.7135 36.8335C32.7328 36.8853 32.7304 36.9412 32.7069 36.9917L32.196 38.0869L34.3419 36.2615C34.3895 36.2196 34.4537 36.1942 34.522 36.1901C34.5903 36.186 34.658 36.2035 34.7121 36.2393C34.7661 36.2751 34.8027 36.3267 34.8148 36.384C34.8269 36.4414 34.8137 36.5006 34.7776 36.5501L34.3275 37.1835L35.801 35.9289C35.8465 35.89 35.9065 35.8659 35.9707 35.8606C36.0349 35.8554 36.0993 35.8693 36.1527 35.9C36.2062 35.9306 36.2455 35.9761 36.2638 36.0287C36.2821 36.0813 36.2783 36.1377 36.2529 36.1882L35.7228 37.2437L37.4676 35.7572C37.5162 35.7156 37.5811 35.6909 37.6499 35.6878C37.7187 35.6847 37.7864 35.7035 37.8398 35.7405C37.8932 35.7774 37.9286 35.83 37.939 35.8879C37.9494 35.9459 37.9342 36.005 37.8962 36.0539L37.773 36.2105L37.93 36.0771C37.9756 36.0384 38.0355 36.0145 38.0995 36.0092C38.1635 36.004 38.2277 36.0179 38.2811 36.0484C38.3344 36.079 38.3736 36.1244 38.392 36.1769C38.4103 36.2294 38.4067 36.2856 38.3816 36.336L38.1974 36.7055C38.2564 36.6807 38.3238 36.6746 38.3876 36.6882C38.4513 36.7018 38.5074 36.7343 38.5456 36.7797C38.584 36.8252 38.6021 36.8807 38.5968 36.9365C38.5915 36.9922 38.5631 37.0446 38.5167 37.0842L37.5991 37.8672C37.5535 37.9059 37.4936 37.9299 37.4296 37.9351C37.3655 37.9403 37.3013 37.9265 37.2479 37.8959C37.1946 37.8653 37.1553 37.8199 37.137 37.7674C37.1186 37.715 37.1222 37.6587 37.1472 37.6083L37.3162 37.2692L36.2517 38.1744C36.2028 38.2132 36.1391 38.2357 36.0723 38.2377C36.0055 38.2398 35.94 38.2212 35.888 38.1855C35.836 38.1497 35.8009 38.0992 35.7891 38.0432C35.7774 37.9872 35.7898 37.9294 35.8241 37.8806L35.9473 37.7241L35.1031 38.4362C35.0575 38.4749 34.9976 38.4988 34.9335 38.504C34.8694 38.5092 34.8052 38.4953 34.7519 38.4646C34.6985 38.434 34.6593 38.3885 34.6411 38.336C34.6228 38.2835 34.6265 38.2272 34.6516 38.1768L35.1818 37.1213L33.0966 38.8937C33.049 38.9357 32.9848 38.9612 32.9164 38.9654C32.848 38.9696 32.7802 38.9521 32.726 38.9163C32.6719 38.8805 32.6353 38.8289 32.6232 38.7714C32.6111 38.714 32.6245 38.6547 32.6606 38.6051L33.1111 37.9717L31.6373 39.2264C31.5921 39.2647 31.5328 39.2886 31.4693 39.2941C31.4058 39.2996 31.342 39.2863 31.2887 39.2565C31.2354 39.2267 31.1958 39.1821 31.1765 39.1304C31.1572 39.0786 31.1595 39.0228 31.183 38.9723L31.6936 37.8773L29.5486 39.7021C29.5147 39.7324 29.4719 39.7543 29.4246 39.7655Z" fill="#CAD0D7" />
	<path d="M31.2091 32.5981C31.1566 32.61 31.1012 32.6085 31.0497 32.5939C30.9982 32.5792 30.9528 32.552 30.9193 32.5157C30.8857 32.4794 30.8654 32.4354 30.8609 32.3894C30.8564 32.3433 30.8678 32.2971 30.8938 32.2566L31.1803 31.8111L30.4264 32.4523C30.3576 32.5161 30.2527 32.5427 30.154 32.5216C30.1054 32.5111 30.0611 32.4897 30.0257 32.4596C29.9902 32.4295 29.965 32.3918 29.9527 32.3505C29.9404 32.3092 29.9415 32.2658 29.9558 32.225C29.97 32.1841 29.997 32.1473 30.0339 32.1185L32.1586 30.3131C32.2059 30.2729 32.2686 30.2485 32.3354 30.2444C32.4021 30.2404 32.4683 30.257 32.5218 30.2912C32.5753 30.3254 32.6125 30.3748 32.6266 30.4305C32.6407 30.4861 32.6307 30.5442 32.5985 30.5941L32.3084 31.0447C32.3643 31.0082 32.4344 30.9912 32.5044 30.997C32.5745 31.0028 32.6394 31.0311 32.6859 31.076C32.7325 31.121 32.7572 31.1793 32.7551 31.2392C32.753 31.2991 32.7243 31.3561 32.6747 31.3986L31.3343 32.5393C31.2995 32.5681 31.2563 32.5884 31.2091 32.5981Z" fill="#F5B945" />
	<path d="M28.5383 38.0255C28.4843 38.0377 28.4272 38.0358 28.3744 38.02C28.3217 38.0042 28.2758 37.9753 28.2427 37.9369C28.2097 37.8986 28.191 37.8526 28.1892 37.8051C28.1873 37.7575 28.2023 37.7106 28.2322 37.6704L29.2472 36.3055L27.878 37.4719C27.8293 37.5136 27.7641 37.5383 27.6952 37.5413C27.6262 37.5443 27.5584 37.5252 27.505 37.4879C27.4516 37.4507 27.4165 37.3978 27.4064 37.3397C27.3963 37.2816 27.412 37.2224 27.4505 37.1736L28.742 35.5264L27.5038 36.5796C27.4545 36.6213 27.3885 36.6457 27.319 36.6479C27.2495 36.6501 27.1815 36.6301 27.1286 36.5917C27.0756 36.5534 27.0414 36.4995 27.0328 36.4408C27.0243 36.382 27.042 36.3227 27.0824 36.2746L28.0434 35.141L27.1581 35.8938C27.1079 35.9369 27.0401 35.9619 26.9689 35.9637C26.8976 35.9655 26.8282 35.9439 26.7752 35.9034C26.7221 35.8629 26.6894 35.8065 26.6838 35.746C26.6783 35.6855 26.7003 35.6256 26.7453 35.5785L28.6946 33.5243L26.6734 35.244C26.623 35.287 26.5551 35.312 26.4838 35.3136C26.4124 35.3151 26.343 35.2933 26.2901 35.2525C26.2373 35.2117 26.2048 35.1552 26.1996 35.0947C26.1944 35.0341 26.2167 34.9742 26.262 34.9272L27.8331 33.2972L26.1869 34.6998C26.1365 34.7424 26.0688 34.767 25.9977 34.7685C25.9267 34.77 25.8576 34.7483 25.8048 34.7078C25.7521 34.6673 25.7196 34.6111 25.7141 34.5509C25.7085 34.4906 25.7303 34.4308 25.7749 34.3838L27.065 33.0284L25.6548 34.2305C25.6042 34.2712 25.5374 34.2942 25.4677 34.295C25.3981 34.2957 25.3306 34.2741 25.2788 34.2345C25.2269 34.1949 25.1944 34.1402 25.1877 34.0811C25.1811 34.0221 25.2008 33.9631 25.243 33.9159L25.9275 33.1898L25.1561 33.8447C25.1063 33.8863 25.0398 33.9104 24.97 33.9122C24.9003 33.914 24.8323 33.8934 24.7796 33.8544C24.7268 33.8156 24.6933 33.7612 24.6856 33.7022C24.6779 33.6432 24.6966 33.5839 24.738 33.5361L26.4809 31.5622L24.3496 33.376C24.2999 33.4182 24.2333 33.4428 24.1631 33.4449C24.093 33.447 24.0245 33.4263 23.9715 33.3872C23.9185 33.3481 23.8848 33.2933 23.8773 33.234C23.8698 33.1746 23.8889 33.115 23.931 33.0672L26.1763 30.5197L23.4322 32.8537C23.3814 32.8955 23.3137 32.9191 23.243 32.9199C23.1723 32.9206 23.104 32.8984 23.0519 32.8577C22.9998 32.8171 22.9678 32.7611 22.9626 32.7011C22.9574 32.6411 22.9792 32.5817 23.0237 32.5349L24.1731 31.371L22.8307 32.5138C22.7799 32.5581 22.7108 32.5837 22.6382 32.5851C22.5656 32.5865 22.4952 32.5635 22.4422 32.5213C22.3891 32.479 22.3577 32.4207 22.3546 32.3589C22.3514 32.2971 22.3768 32.2367 22.4254 32.1907L22.5457 32.0744L22.3693 32.2241C22.3189 32.2671 22.2508 32.2919 22.1794 32.2933C22.108 32.2948 22.0387 32.2727 21.9859 32.2318C21.933 32.1909 21.9008 32.1342 21.8958 32.0736C21.8908 32.0129 21.9135 31.953 21.9591 31.9062L23.9006 29.9107L21.7694 31.7248C21.7201 31.7675 21.6537 31.7927 21.5835 31.7953C21.5133 31.798 21.4445 31.7778 21.391 31.739C21.3376 31.7002 21.3034 31.6456 21.2954 31.5862C21.2874 31.5268 21.3062 31.467 21.348 31.4189L23.4249 28.9936L21.0121 31.0462C20.9619 31.0875 20.8953 31.1113 20.8254 31.1127C20.7556 31.1141 20.6877 31.0931 20.6353 31.0538C20.5829 31.0145 20.5498 30.9599 20.5427 30.9008C20.5355 30.8417 20.5548 30.7824 20.5966 30.7349L21.4505 29.7946L20.5894 30.5291C20.539 30.5712 20.4715 30.5954 20.4009 30.5967C20.3302 30.598 20.2616 30.5764 20.209 30.5361C20.1565 30.4959 20.1239 30.4402 20.118 30.3802C20.112 30.3203 20.1332 30.2607 20.177 30.2135L20.6088 29.7581L20.2249 30.0853C20.175 30.1309 20.1061 30.1579 20.033 30.1605C19.9598 30.1631 19.8885 30.141 19.8344 30.099C19.7803 30.0571 19.7479 29.9987 19.7442 29.9365C19.7404 29.8743 19.7657 29.8134 19.8145 29.767L19.9063 29.673C19.8578 29.7039 19.7989 29.7205 19.7383 29.7202C19.6778 29.7199 19.619 29.7028 19.571 29.6715C19.5228 29.6402 19.4881 29.5964 19.4719 29.5468C19.4558 29.4971 19.4593 29.4443 19.4817 29.3965L19.7279 28.8693L19.5854 28.9903C19.5477 29.0222 19.5 29.0443 19.4479 29.0539C19.3959 29.0634 19.3417 29.0601 19.2918 29.0443C19.242 29.0283 19.1986 29.0005 19.1668 28.9641C19.135 28.9278 19.1162 28.8844 19.1125 28.8392L19.0899 28.5651C19.0302 28.5582 18.9748 28.5346 18.9324 28.4982C18.8803 28.4539 18.851 28.3939 18.8509 28.3312C18.8509 28.2686 18.88 28.2085 18.932 28.1641L19.1392 27.9879C19.1769 27.9557 19.2246 27.9335 19.2767 27.9238C19.3288 27.9142 19.3831 27.9175 19.4331 27.9334C19.4831 27.9493 19.5266 27.9771 19.5585 28.0135C19.5903 28.0499 19.6092 28.0933 19.6128 28.1386L19.625 28.2886L20.2864 27.7264C20.3315 27.6878 20.3909 27.6637 20.4546 27.6581C20.5182 27.6525 20.5822 27.6659 20.6356 27.6958C20.689 27.7258 20.7286 27.7705 20.7478 27.8224C20.767 27.8743 20.7645 27.9303 20.7408 27.9809L20.495 28.5074L23.7927 25.7008C23.8433 25.6583 23.9112 25.6339 23.9823 25.6328C24.0534 25.6316 24.1223 25.6537 24.1749 25.6945C24.2274 25.7353 24.2595 25.7917 24.2646 25.852C24.2697 25.9124 24.2473 25.9721 24.2022 26.0188L24.0194 26.2075C24.0692 26.1877 24.1248 26.1807 24.1792 26.1874C24.2336 26.1941 24.2846 26.2141 24.3258 26.2451C24.3785 26.2856 24.411 26.3417 24.4166 26.402C24.4222 26.4622 24.4005 26.522 24.356 26.5691L23.9242 27.0242L24.1293 26.8496C24.2327 26.7611 24.3994 26.7562 24.5097 26.8388C24.6199 26.9214 24.6354 27.0627 24.5454 27.1615L23.6914 28.1012L25.5483 26.5212C25.5978 26.4793 25.664 26.4548 25.7338 26.4526C25.8035 26.4504 25.8717 26.4706 25.9247 26.5092C25.9778 26.5478 26.0118 26.602 26.02 26.661C26.0282 26.72 26.0101 26.7794 25.9691 26.8275L23.8924 29.2529L27.6836 26.0272C27.7342 25.9845 27.8021 25.96 27.8733 25.9588C27.9445 25.9575 28.0136 25.9795 28.0662 26.0203C28.1189 26.0611 28.1511 26.1176 28.1562 26.178C28.1614 26.2385 28.139 26.2983 28.0938 26.3451L26.1537 28.3392L28.1646 26.6284C28.2157 26.5855 28.2844 26.5611 28.3561 26.5604C28.4279 26.5596 28.4973 26.5826 28.5496 26.6244C28.6019 26.6662 28.6332 26.7236 28.6369 26.7846C28.6406 26.8456 28.6164 26.9054 28.5693 26.9515L28.3812 27.1338C28.4971 27.0713 28.649 27.0899 28.7393 27.1775C28.7829 27.22 28.8073 27.2744 28.8079 27.3309C28.8086 27.3874 28.7854 27.4422 28.7427 27.4854L27.5919 28.6499L28.544 27.8388C28.5938 27.7972 28.6603 27.7731 28.7301 27.7713C28.7999 27.7695 28.868 27.7901 28.9207 27.8291C28.9735 27.868 29.007 27.9224 29.0147 27.9815C29.0224 28.0405 29.0036 28.0998 28.9621 28.1476L26.7171 30.6963L28.8682 28.8657C28.9179 28.8234 28.9846 28.7987 29.0549 28.7966C29.1252 28.7945 29.1937 28.8152 29.2468 28.8544C29.2999 28.8936 29.3336 28.9486 29.3409 29.0081C29.3483 29.0676 29.3288 29.1273 29.2865 29.175L27.5442 31.148L29.1564 29.7727C29.2068 29.7306 29.2742 29.7064 29.3447 29.7051C29.4153 29.7038 29.4839 29.7254 29.5364 29.7655C29.589 29.8056 29.6216 29.8612 29.6277 29.921C29.6338 29.9809 29.6128 30.0404 29.5691 30.0875L28.8839 30.8133L30.4636 29.4693C30.5139 29.4267 30.5816 29.4021 30.6526 29.4006C30.7236 29.3991 30.7926 29.4208 30.8454 29.4613C30.8981 29.5018 30.9306 29.558 30.9362 29.6183C30.9418 29.6786 30.92 29.7384 30.8754 29.7855L29.5869 31.1354L31.3981 29.5973C31.4484 29.5543 31.5163 29.5294 31.5876 29.5278C31.6589 29.5262 31.7282 29.5481 31.781 29.5889C31.8339 29.6296 31.8663 29.6861 31.8716 29.7466C31.8769 29.8071 31.8547 29.8671 31.8095 29.9141L30.2371 31.5444L32.0013 30.0434C32.0515 29.9999 32.1194 29.9745 32.191 29.9727C32.2626 29.9708 32.3322 29.9926 32.3854 30.0334C32.4386 30.0741 32.4713 30.1308 32.4765 30.1915C32.4818 30.2523 32.4592 30.3124 32.4135 30.3593L30.2223 32.6692C30.2775 32.6581 30.3353 32.6616 30.388 32.6793C30.4407 32.697 30.4858 32.728 30.5172 32.7681C30.5487 32.8083 30.5649 32.8556 30.5637 32.9039C30.5626 32.9521 30.5441 32.9988 30.5109 33.0379L29.5521 34.1693L30.3365 33.5014C30.3853 33.4604 30.4502 33.4362 30.5187 33.4335C30.5873 33.4308 30.6545 33.4498 30.7076 33.4868C30.7606 33.5237 30.7957 33.5761 30.8061 33.6338C30.8165 33.6915 30.8014 33.7504 30.7638 33.7992L29.4722 35.446L30.6392 34.4534C30.6877 34.4129 30.7519 34.3889 30.8198 34.386C30.8876 34.3831 30.9544 34.4014 31.0074 34.4375C31.0604 34.4737 31.096 34.5251 31.1075 34.582C31.119 34.639 31.1055 34.6976 31.0698 34.7467L30.0519 36.1109L30.9294 35.3643C30.9754 35.3251 31.0362 35.3009 31.1011 35.2959C31.1659 35.2909 31.2308 35.3054 31.2844 35.337C31.3378 35.3686 31.3766 35.4151 31.3938 35.4685C31.4111 35.522 31.4057 35.5788 31.3788 35.6292L31.0086 36.3187L31.1856 36.1684C31.2251 36.1348 31.2756 36.1121 31.3305 36.1032C31.3854 36.0943 31.4422 36.0997 31.4934 36.1187C31.5446 36.1377 31.5878 36.1695 31.6175 36.2098C31.6472 36.2501 31.6619 36.297 31.6598 36.3445L31.6424 36.7037C31.6896 36.7143 31.7327 36.7353 31.7674 36.7645C31.8021 36.7938 31.827 36.8303 31.8398 36.8704C31.8526 36.9105 31.8527 36.9528 31.8402 36.9929C31.8277 37.0331 31.803 37.0697 31.7685 37.0991L31.5422 37.2932C31.5027 37.3267 31.4522 37.3493 31.3974 37.358C31.3426 37.3667 31.2859 37.3612 31.2349 37.3422C31.1837 37.3232 31.1405 37.2916 31.1108 37.2514C31.0812 37.2112 31.0665 37.1643 31.0686 37.1169L31.0777 36.9299L30.3166 37.5775C30.2706 37.6167 30.2099 37.6408 30.1451 37.6458C30.0803 37.6507 30.0155 37.6361 29.962 37.6046C29.9084 37.5731 29.8696 37.5265 29.8523 37.4731C29.835 37.4197 29.8404 37.3628 29.8675 37.3124L30.2375 36.6217L28.6634 37.9591C28.6297 37.9906 28.5864 38.0136 28.5383 38.0254L28.5383 38.0255Z" fill="#F5B945" />
	<path d="M21.6108 27.7738C21.5568 27.7861 21.4996 27.7842 21.4468 27.7684C21.394 27.7526 21.3481 27.7235 21.3151 27.6851C21.282 27.6467 21.2634 27.6006 21.2616 27.553C21.2599 27.5055 21.275 27.4585 21.3052 27.4184L21.6873 26.91L21.2827 27.2542C21.2381 27.292 21.1797 27.3158 21.1172 27.3217C21.0546 27.3275 20.9915 27.3151 20.9383 27.2865C20.8851 27.2578 20.8449 27.2146 20.8243 27.164C20.8038 27.1134 20.804 27.0583 20.8251 27.0078L21.219 26.0681L21.2129 26.074C21.1607 26.1177 21.0903 26.1422 21.0169 26.142C20.9436 26.1418 20.8734 26.117 20.8215 26.0729C20.7696 26.0287 20.7404 25.9689 20.7402 25.9065C20.74 25.8441 20.7688 25.7842 20.8203 25.7397L21.6981 24.9922C21.7427 24.9542 21.8012 24.9302 21.8639 24.9242C21.9267 24.9183 21.9899 24.9307 22.0433 24.9595C22.0966 24.9882 22.1368 25.0316 22.1573 25.0824C22.1778 25.1332 22.1773 25.1885 22.1559 25.239L21.7615 26.1782L23.103 25.0368C23.1516 24.9967 23.2157 24.973 23.2834 24.9703C23.351 24.9676 23.4175 24.986 23.4703 25.022C23.523 25.0581 23.5585 25.1093 23.57 25.1661C23.5816 25.2228 23.5684 25.2812 23.533 25.3302L23.1513 25.8381L23.6356 25.4258C23.6877 25.3815 23.7584 25.3566 23.8321 25.3566C23.9058 25.3567 23.9765 25.3816 24.0286 25.426C24.0807 25.4704 24.1099 25.5305 24.1099 25.5932C24.1098 25.6559 24.0805 25.7161 24.0284 25.7604L21.7349 27.7113C21.7008 27.7411 21.658 27.7627 21.6108 27.7738ZM35.0372 24.7872C34.9782 24.8006 34.9156 24.7971 34.8592 24.7773C34.8027 24.7574 34.7555 24.7222 34.7249 24.6772C34.6944 24.6322 34.6821 24.5798 34.6901 24.5282C34.6981 24.4767 34.7258 24.4288 34.769 24.392L37.5296 22.0435C37.5752 22.0046 37.6353 21.9804 37.6996 21.9752C37.7638 21.9699 37.8282 21.9839 37.8817 22.0147C37.9352 22.0455 37.9744 22.0911 37.9926 22.1439C38.0107 22.1966 38.0067 22.253 37.9813 22.3035L37.5733 23.1186L37.872 22.8642C37.9107 22.8312 37.9601 22.8088 38.0138 22.7996C38.0675 22.7905 38.1231 22.7951 38.1738 22.8128C38.2245 22.8304 38.268 22.8603 38.2988 22.8988C38.3295 22.9374 38.3462 22.9828 38.3467 23.0294L38.3501 23.4288C38.4047 23.4377 38.4549 23.4604 38.4941 23.4939C38.5462 23.5382 38.5755 23.5982 38.5755 23.6609C38.5755 23.7236 38.5463 23.7837 38.4943 23.828L38.2723 24.0165C38.2337 24.0496 38.1844 24.0722 38.1307 24.0814C38.077 24.0907 38.0213 24.0862 37.9706 24.0685C37.9199 24.0509 37.8764 24.0209 37.8457 23.9823C37.8149 23.9438 37.7983 23.8983 37.7979 23.8517L37.7959 23.5973L36.9452 24.3179C36.8997 24.3571 36.8395 24.3816 36.7751 24.387C36.7106 24.3924 36.646 24.3785 36.5923 24.3477C36.5386 24.3168 36.4993 24.271 36.4812 24.2181C36.4631 24.1652 36.4673 24.1085 36.493 24.058L36.9037 23.2424L35.1612 24.7246C35.1273 24.7546 35.0844 24.7762 35.0372 24.7872Z" fill="#F5B945" />
	<path d="M34.2655 27.3994C34.2157 27.4108 34.1631 27.4102 34.1137 27.3976C34.0643 27.385 34.0199 27.3609 33.9857 27.3281C33.9515 27.2953 33.9287 27.255 33.9199 27.2117C33.9111 27.1685 33.9166 27.124 33.9359 27.0833L34.4148 26.1006L33.1534 27.1716C33.1032 27.2149 33.0352 27.2401 32.9636 27.2418C32.8921 27.2435 32.8226 27.2217 32.7695 27.1809C32.7164 27.1401 32.6839 27.0834 32.6787 27.0227C32.6735 26.962 32.696 26.9019 32.7416 26.855L33.9956 25.5418L32.628 26.7049C32.5781 26.7466 32.5114 26.7709 32.4414 26.7726C32.3714 26.7744 32.3032 26.7536 32.2505 26.7144C32.1977 26.6752 32.1643 26.6205 32.157 26.5612C32.1496 26.502 32.1689 26.4425 32.2108 26.3948L34.4634 23.8703L32.4587 25.5759C32.4087 25.618 32.3418 25.6424 32.2715 25.644C32.2011 25.6457 32.1327 25.6246 32.08 25.585C32.0272 25.5454 31.9941 25.4903 31.9872 25.4308C31.9804 25.3712 32.0004 25.3117 32.0432 25.2642L33.7517 23.3848L31.075 25.6587C31.0243 25.7028 30.9554 25.7283 30.883 25.7297C30.8106 25.7312 30.7403 25.7085 30.6873 25.6665C30.6342 25.6245 30.6025 25.5665 30.599 25.505C30.5954 25.4434 30.6203 25.3831 30.6683 25.3369L31.1505 24.8596L29.8881 25.933C29.837 25.9751 29.7688 25.9988 29.6977 25.9993C29.6266 25.9998 29.558 25.977 29.506 25.9358C29.454 25.8945 29.4226 25.8378 29.4183 25.7774C29.4139 25.717 29.437 25.6575 29.4828 25.6112L30.4031 24.7105L28.6208 26.2265C28.5695 26.2695 28.5007 26.2939 28.4287 26.2945C28.3567 26.2952 28.2873 26.272 28.235 26.23C28.1826 26.188 28.1515 26.1303 28.1482 26.0691C28.1449 26.0079 28.1696 25.948 28.2173 25.9021L28.7163 25.4258L28.2296 25.8395C28.1786 25.8813 28.1107 25.9051 28.0398 25.9057C27.969 25.9064 27.9005 25.884 27.8484 25.8431C27.7963 25.8022 27.7645 25.7459 27.7596 25.6858C27.7547 25.6256 27.777 25.5661 27.8219 25.5195L30.1176 23.232L27.9856 25.0447C27.9347 25.0868 27.8669 25.1107 27.7959 25.1116C27.725 25.1124 27.6563 25.0901 27.6041 25.0493C27.5519 25.0084 27.5201 24.9521 27.5151 24.8919C27.5102 24.8316 27.5325 24.7721 27.5776 24.7255L29.587 22.7066L27.7456 24.2733C27.6956 24.3173 27.6276 24.3431 27.5558 24.3453C27.4839 24.3476 27.4139 24.326 27.3603 24.2852C27.3067 24.2444 27.2739 24.1874 27.2687 24.1263C27.2635 24.0653 27.2864 24.0049 27.3325 23.9579L29.8407 21.2998L27.4486 23.3354C27.3988 23.3775 27.332 23.402 27.2618 23.4039C27.1916 23.4058 27.1231 23.3849 27.0702 23.3456C27.0173 23.3062 26.984 23.2513 26.9768 23.1918C26.9696 23.1324 26.9892 23.0728 27.0317 23.0251L29.4546 20.3253L25.9036 23.3467C25.8533 23.3902 25.7852 23.4154 25.7136 23.417C25.642 23.4187 25.5723 23.3968 25.5193 23.3558C25.4662 23.3149 25.4337 23.258 25.4288 23.1972C25.4238 23.1364 25.4467 23.0763 25.4926 23.0295L27.4959 20.9495L24.9407 23.1235C24.894 23.1631 24.8323 23.1873 24.7665 23.1917C24.7008 23.196 24.6354 23.1804 24.582 23.1475C24.5286 23.1146 24.4907 23.0667 24.475 23.0122C24.4594 22.9577 24.4671 22.9002 24.4967 22.8501L25.1734 21.7124L24.3196 22.4383C24.2737 22.4771 24.2133 22.5011 24.1488 22.506C24.0843 22.511 24.0199 22.4967 23.9665 22.4655C23.9131 22.4344 23.8742 22.3883 23.8565 22.3354C23.8387 22.2824 23.8433 22.2258 23.8693 22.1754L24.2188 21.5047C24.16 21.5163 24.0983 21.5114 24.0432 21.4905C23.988 21.4697 23.9424 21.4341 23.9131 21.3892C23.8839 21.3443 23.8726 21.2925 23.881 21.2417C23.8894 21.1908 23.917 21.1437 23.9597 21.1074L24.8336 20.3636C24.8793 20.3243 24.9398 20.2999 25.0045 20.2947C25.0693 20.2895 25.1341 20.3038 25.1876 20.3351C25.2413 20.3664 25.2803 20.4126 25.298 20.4658C25.3156 20.5191 25.3108 20.5759 25.2844 20.6264L24.9818 21.2071L26.0074 20.3372C26.054 20.2971 26.1159 20.2725 26.182 20.2679C26.2481 20.2633 26.3139 20.2789 26.3676 20.312C26.4213 20.3451 26.4593 20.3934 26.4748 20.4483C26.4902 20.5031 26.4821 20.5609 26.4519 20.611L25.775 21.7483L31.075 17.2362C31.1254 17.1932 31.1934 17.1684 31.2647 17.1669C31.3361 17.1654 31.4054 17.1873 31.4582 17.2281C31.5111 17.2689 31.5435 17.3255 31.5487 17.386C31.5538 17.4466 31.5314 17.5066 31.486 17.5534L29.4839 19.6318L32.004 17.4871C32.0538 17.4445 32.1207 17.4196 32.1912 17.4176C32.2618 17.4155 32.3306 17.4363 32.3837 17.4758C32.4368 17.5153 32.4703 17.5706 32.4773 17.6303C32.4843 17.6901 32.4642 17.7499 32.4213 17.7975L29.9982 20.4977L33.0462 17.9045C33.0963 17.8612 33.164 17.836 33.2354 17.8342C33.3068 17.8323 33.3762 17.8538 33.4294 17.8944C33.4826 17.9349 33.5153 17.9913 33.5209 18.0518C33.5265 18.1124 33.5045 18.1725 33.4594 18.2196L30.9528 20.8761L33.9111 18.3591C33.962 18.317 34.0299 18.2931 34.1009 18.2923C34.1718 18.2914 34.2404 18.3137 34.2927 18.3546C34.3449 18.3955 34.3768 18.4518 34.3817 18.5121C34.3866 18.5723 34.3643 18.6319 34.3192 18.6786L32.3101 20.6973L34.5895 18.7587C34.6402 18.7153 34.7087 18.6902 34.7806 18.6889C34.8526 18.6875 34.9223 18.7099 34.9752 18.7515C35.0281 18.793 35.0599 18.8503 35.0641 18.9114C35.0683 18.9725 35.0445 19.0326 34.9976 19.0791L32.7118 21.3684L35.2104 19.2425C35.317 19.153 35.4877 19.1515 35.5963 19.239C35.6486 19.281 35.6797 19.3387 35.683 19.3999C35.6863 19.461 35.6616 19.5209 35.614 19.5668L35.1149 20.0432L35.6409 19.5954C35.6921 19.5534 35.7602 19.5297 35.8313 19.5292C35.9024 19.5287 35.971 19.5514 36.023 19.5927C36.0751 19.634 36.1065 19.6907 36.1108 19.7512C36.1151 19.8116 36.0921 19.8712 36.0463 19.9175L35.1265 20.818L36.0731 20.0151C36.1237 19.9708 36.1926 19.9451 36.2652 19.9436C36.3377 19.942 36.4081 19.9647 36.4613 20.0067C36.5144 20.0488 36.5461 20.1069 36.5496 20.1685C36.553 20.2302 36.5279 20.2906 36.4797 20.3368L35.9972 20.8131L36.44 20.4367C36.4899 20.394 36.557 20.3692 36.6277 20.3671C36.6985 20.3651 36.7674 20.3861 36.8206 20.4259C36.8737 20.4657 36.907 20.5213 36.9136 20.5812C36.9202 20.6412 36.8997 20.7011 36.8562 20.7486L35.1476 22.6272L36.9621 21.085C37.0119 21.043 37.0786 21.0186 37.1487 21.0167C37.2188 21.0148 37.2872 21.0355 37.34 21.0748C37.393 21.114 37.4265 21.1688 37.4338 21.2281C37.4411 21.2875 37.4217 21.3471 37.3795 21.3948L35.1269 23.9193L37.461 21.9329C37.5122 21.8951 37.578 21.8745 37.6458 21.8751C37.7136 21.8756 37.7789 21.8973 37.8292 21.936C37.8796 21.9746 37.9115 22.0276 37.9191 22.085C37.9267 22.1423 37.9093 22.2001 37.8703 22.2473L35.3447 24.8853L35.3615 24.8942C35.4151 24.9246 35.4545 24.9699 35.4732 25.0223C35.4918 25.0747 35.4885 25.131 35.4638 25.1815L34.9855 26.1634L35.1996 25.9816C35.2519 25.9384 35.3221 25.9145 35.395 25.915C35.4679 25.9155 35.5377 25.9403 35.5892 25.9842C35.6407 26.0281 35.67 26.0874 35.6705 26.1494C35.6711 26.2115 35.643 26.2712 35.5923 26.3157L34.39 27.3383C34.3555 27.3676 34.3125 27.3887 34.2655 27.3994Z" fill="#F5B945" />
	<path d="M26.4617 20.6581C26.4054 20.671 26.3457 20.6684 26.2912 20.6508C26.2367 20.6332 26.1901 20.6015 26.1579 20.5601C26.1258 20.5187 26.1099 20.4698 26.1123 20.4202C26.1147 20.3707 26.1353 20.323 26.1712 20.284L26.3288 20.1155C26.2735 20.1358 26.2121 20.1403 26.1537 20.1283C26.0952 20.1163 26.0429 20.0886 26.0046 20.0491C25.9662 20.0097 25.9439 19.9608 25.9411 19.9097C25.9382 19.8586 25.9548 19.8081 25.9886 19.7658L26.6055 18.9936L26.1921 19.3456C26.1465 19.3842 26.0866 19.4082 26.0225 19.4134C25.9585 19.4186 25.8943 19.4047 25.841 19.3741C25.7877 19.3435 25.7485 19.2981 25.7302 19.2457C25.7118 19.1933 25.7153 19.1371 25.7402 19.0867L26.1881 18.1812L25.902 18.4245C25.863 18.4576 25.8133 18.4801 25.7592 18.489C25.7051 18.498 25.6491 18.4931 25.5983 18.4749C25.5476 18.4567 25.5043 18.4261 25.474 18.3869C25.4437 18.3478 25.4278 18.3019 25.4283 18.255L25.4335 17.8353C25.3859 17.825 25.3424 17.8043 25.3072 17.7751C25.2721 17.7459 25.2467 17.7094 25.2335 17.6692C25.2204 17.629 25.2201 17.5865 25.2325 17.5462C25.245 17.5058 25.2697 17.469 25.3043 17.4394L25.521 17.2549C25.56 17.2218 25.6098 17.1994 25.6638 17.1904C25.7179 17.1814 25.7739 17.1863 25.8247 17.2045C25.8754 17.2227 25.9187 17.2533 25.949 17.2925C25.9793 17.3316 25.9952 17.3776 25.9947 17.4244L25.9918 17.6815L26.7995 16.9923C26.845 16.9535 26.9049 16.9293 26.9691 16.924C27.0332 16.9188 27.0975 16.9326 27.1509 16.9633C27.2044 16.9939 27.2438 17.0394 27.2622 17.0919C27.2806 17.1444 27.277 17.2008 27.2519 17.2513L26.8032 18.1584L28.2832 16.8987C28.332 16.8567 28.3976 16.8317 28.4669 16.8288C28.5363 16.8258 28.6044 16.845 28.658 16.8826C28.7114 16.9203 28.7464 16.9736 28.756 17.0322C28.7655 17.0907 28.749 17.1501 28.7097 17.1988L28.0959 17.9689L29.2938 16.9491C29.344 16.9067 29.4114 16.8821 29.4822 16.8806C29.553 16.879 29.6219 16.9005 29.6747 16.9407C29.7275 16.9807 29.7603 17.0365 29.7663 17.0965C29.7724 17.1565 29.7513 17.2162 29.7073 17.2634L29.6649 17.3109L30.0128 17.0148C30.065 16.9709 30.1354 16.9464 30.2087 16.9466C30.2819 16.9468 30.3522 16.9717 30.404 17.0158C30.4559 17.0599 30.4852 17.1197 30.4855 17.1821C30.4858 17.2446 30.457 17.3046 30.4055 17.349L26.5861 20.5968C26.5518 20.6264 26.5089 20.6476 26.4617 20.6581Z" fill="#F5B945" />
	<path d="M18.7015 28.3528L18.7031 28.3578C18.7784 28.5554 18.8614 28.7513 18.9547 28.9448C19.8053 30.666 21.2774 32.1124 23.158 33.0747C24.2063 33.5874 25.1227 34.2743 25.8526 35.0945C26.5825 35.9147 27.111 36.8514 27.4067 37.849C27.3815 37.8585 27.3546 37.8657 27.3287 37.8755C26.4933 38.1985 25.5991 39.0752 26.4701 39.8199C26.6656 39.9868 26.9246 40.089 27.2006 40.1082C26.696 40.5252 26.4287 41.116 27.0452 41.6458C27.647 42.1616 28.5085 41.8992 29.2209 41.7309C29.8744 43.4751 32.0244 44.4736 34.102 43.998C34.1079 43.9966 34.1179 43.9914 34.1253 43.9891C34.1462 43.9843 34.159 43.985 34.1847 43.9755C36.2787 43.394 37.9097 41.7765 37.4836 39.8434L38.0302 39.7188C38.0384 39.7169 38.0473 39.7117 38.055 39.7095C38.115 39.6961 38.1725 39.6756 38.2256 39.6487C39.1015 39.2161 39.9389 38.2066 38.7011 37.5921C38.5463 37.5188 38.3754 37.4735 38.1991 37.459C38.7902 36.9621 39.0917 36.2453 38.1264 35.767C37.7035 35.5969 37.2202 35.5708 36.7754 35.694C36.0095 33.1081 36.7161 31.4195 38.006 29.0107C38.8898 27.3411 39.1224 25.4746 38.6695 23.6845C38.6881 23.639 38.6817 23.6044 38.6441 23.5855C38.5328 23.1199 38.3866 22.661 38.2061 22.2112C36.0869 18.1226 30.7476 15.9905 25.6972 17.2161C25.5909 17.1843 25.4753 17.183 25.368 17.2125C25.2608 17.242 25.1679 17.3005 25.1034 17.3792C19.8362 18.9665 17.0022 23.8256 18.702 28.3545L18.7015 28.3528ZM27.9669 36.9472C27.0877 34.2189 24.8149 33.512 22.4922 31.8659C21.1699 30.9219 20.1619 29.6992 19.5687 28.3199L21.5339 27.8719C21.6985 27.8344 21.9623 27.7317 21.9818 27.5613C21.9828 27.5387 21.9791 27.516 21.971 27.4944C21.9715 27.4837 21.9698 27.473 21.9658 27.4629L21.9643 27.4582C21.9593 27.4398 21.9473 27.4234 21.9299 27.4116C21.0453 26.8595 20.8531 25.1132 22.4378 25.2479C22.6834 25.277 22.9174 25.355 23.1209 25.4756C23.3243 25.5961 23.4915 25.7559 23.6086 25.9418C23.7257 26.1278 23.7895 26.3346 23.7949 26.5456C23.8003 26.7565 23.747 26.9655 23.6395 27.1556C23.6104 27.2111 23.6288 27.2403 23.6673 27.2547C23.6846 27.288 23.7471 27.3002 23.8881 27.268L27.824 26.3707L29.0765 30.3481C29.1795 30.6749 29.9095 30.3984 29.8439 30.1243C30.4947 29.4866 31.644 29.9097 32.0099 30.5987C32.5038 31.5291 31.6182 32.5099 30.4277 32.0642C30.2564 32 29.8579 32.223 29.7611 32.3678C29.7562 32.3758 29.7528 32.3842 29.7511 32.3931C29.7438 32.406 29.741 32.4204 29.7429 32.4346C29.7439 32.4378 29.7406 32.4415 29.7416 32.4446L31.129 36.85C30.1248 37.0416 29.1359 37.2872 28.1683 37.5853C27.9548 37.5258 28.1379 37.4778 27.9669 36.9472ZM36.8237 40.6033C36.9321 41.9474 35.9648 43.1852 34.4659 43.6198C32.5808 43.9862 30.67 43.1 30.0103 41.5534L36.8176 40.0015C36.807 40.2016 36.8088 40.4021 36.8228 40.6021L36.8237 40.6033ZM38.1123 39.3232L33.1687 40.4502C32.5938 40.5813 26.7214 42.2627 27.654 40.4781C27.7723 40.2848 27.9536 40.1246 28.1762 40.0166C28.3732 39.9717 28.5659 39.9224 28.7466 39.8812L32.7264 38.9739C32.7731 38.9632 32.8233 38.9547 32.8651 38.9451L36.2055 38.1836C36.2285 38.1783 36.2582 38.1692 36.2807 38.1636L37.1806 37.9584C37.1879 37.9567 37.1976 37.9545 37.2059 37.9555C37.9563 37.961 39.4031 38.6306 38.1112 39.322L38.1123 39.3232ZM37.5696 37.4836C37.1031 37.5519 36.6293 37.7043 36.2303 37.7952C33.8325 38.3419 31.0341 38.6668 28.667 39.4355C27.5251 39.5489 26.6794 39.4163 27.0784 38.6503C27.2016 38.4484 27.3919 38.2818 27.6256 38.1712C27.6757 38.1797 27.7273 38.1781 27.7765 38.1666L36.3605 36.2097C36.4358 36.1902 36.5083 36.1635 36.5766 36.1302C36.5934 36.1292 36.6128 36.1248 36.6295 36.1251C37.3724 36.1322 38.8052 36.7943 37.569 37.4833L37.5696 37.4836ZM37.7262 28.1757C37.2359 29.4924 36.1884 30.5811 35.7844 31.9296C35.5111 32.8403 35.2476 34.4518 35.8127 35.2949C35.8573 35.3623 35.9288 35.7041 36.0266 35.8632C35.9976 35.8772 35.963 35.888 35.9339 35.9015C35.8379 35.9268 35.7449 35.9505 35.6557 35.9708C34.4753 36.2399 33.1917 36.4566 31.9129 36.6974L30.6263 32.6118C31.8475 32.5971 33.0872 31.7367 32.8618 30.6123C32.5853 29.2321 30.8609 29.1576 29.7434 29.794L28.6051 26.1794L31.8837 25.432C31.7823 25.7176 31.7775 26.0217 31.8697 26.3096C31.9619 26.5974 32.1474 26.8574 32.405 27.0598C32.6627 27.2622 32.9821 27.3988 33.3267 27.4541C33.6712 27.5094 34.0271 27.4811 34.3537 27.3725C34.671 27.2962 34.9612 27.1545 35.1986 26.96C35.436 26.7654 35.6133 26.524 35.7147 26.2571C35.8161 25.9902 35.8385 25.7061 35.7799 25.4301C35.7213 25.1541 35.5835 24.8946 35.3788 24.6748L37.9632 24.0856C38.2922 25.444 38.2106 26.8513 37.7262 28.1757ZM37.4855 22.5654C37.6373 22.9427 37.7653 23.3267 37.8697 23.7157L34.9483 24.3817C34.6668 24.348 34.1867 24.6707 34.4005 24.8329L34.4049 24.8377C34.4057 24.8404 34.4064 24.8427 34.4105 24.8447C35.302 25.4003 35.4314 27.0256 33.9323 26.9779C33.6847 26.9599 33.446 26.8905 33.2373 26.7758C33.0285 26.6611 32.856 26.5045 32.7349 26.3199C32.6138 26.1352 32.5478 25.9281 32.5426 25.7167C32.5375 25.5053 32.5934 25.2961 32.7054 25.1073C32.8055 24.9137 32.5092 24.9348 32.2582 25.0346L28.5135 25.8884L27.438 22.4733C27.4425 22.4585 27.4404 22.4428 27.4322 22.4292C27.4239 22.4156 27.4101 22.405 27.3934 22.3995C27.2322 22.198 26.7029 22.3979 26.6693 22.6286C26.001 23.3192 24.7873 22.8706 24.4636 22.1387C24.3526 21.9452 24.3152 21.727 24.3567 21.5146C24.3982 21.3021 24.5166 21.106 24.6953 20.9535C24.8741 20.801 25.1043 20.6998 25.3539 20.6639C25.6035 20.628 25.8601 20.6592 26.0879 20.7532C26.305 20.9444 26.8841 20.7053 26.7967 20.4278L26.788 20.4003C26.7879 20.3884 26.7842 20.3765 26.7773 20.3662L25.9213 17.6482C30.6614 16.7286 35.5044 18.788 37.4855 22.5654ZM19.2488 23.3365C19.9368 20.7494 22.1708 18.6598 25.1329 17.8329L25.8711 20.1769C24.588 20.176 23.3131 21.0958 23.6694 22.2969C24.0553 23.5988 25.6919 23.6744 26.7804 23.0553L27.7245 26.053L24.4357 26.8028C24.5402 26.5188 24.5463 26.2152 24.4535 25.9282C24.3606 25.6413 24.1727 25.3832 23.9121 25.1846C23.6515 24.9861 23.3293 24.8556 22.9839 24.8086C22.6384 24.7617 22.2845 24.8003 21.9641 24.9199C20.6466 25.3359 20.0407 26.6525 20.9241 27.5402L19.3943 27.889C18.8491 26.4125 18.7987 24.8359 19.2488 23.3365ZM40.404 23.1032L44.1597 22.247C44.6029 22.1459 44.6053 21.6275 44.0773 21.7479L40.3217 22.6041C39.8786 22.7051 39.8763 23.2235 40.404 23.1032ZM37.4606 18.2191L40.2098 15.8801C40.5911 15.5553 39.8821 15.6612 39.689 15.8275L36.9399 18.1667C36.5584 18.4915 37.2672 18.3841 37.4605 18.2191L37.4606 18.2191ZM40.599 27.9707C40.2418 27.8897 39.6821 28.3985 40.1269 28.5L43.8829 29.3561C44.2396 29.4374 44.7993 28.9286 44.3545 28.8269L40.599 27.9707ZM16.6581 28.4482C16.9353 28.385 17.3765 27.9037 16.8552 28.0226L13.0996 28.8788C12.8223 28.942 12.3811 29.4233 12.9025 29.3044L16.6581 28.4482ZM16.4279 23.0524C16.6573 23.1047 17.2241 22.6863 17.0853 22.6551L13.33 21.7987C13.1 21.7464 12.5336 22.1646 12.6718 22.1963L16.4279 23.0524ZM19.6798 32.7315L16.9306 35.0707C16.5453 35.3977 17.0777 35.6826 17.4101 35.4017L20.1594 33.0625C20.5436 32.7337 20.0117 32.4489 19.6798 32.7315Z" fill="#F9FAFB" />
</svg>
