<svg xmlns="http://www.w3.org/2000/svg" width="44" height="45" viewBox="0 0 44 45" fill="none">
	<path d="M22.8659 5.44895C22.592 5.33154 22.2971 5.271 21.9991 5.271C21.7011 5.271 21.4062 5.33154 21.1323 5.44895L5.73231 12.049C5.33545 12.218 4.99705 12.5 4.7592 12.8599C4.52134 13.2197 4.39453 13.6416 4.39453 14.073C4.39453 14.5043 4.52134 14.9262 4.7592 15.286C4.99705 15.6459 5.33545 15.9279 5.73231 16.097L11.5491 18.5852C11.765 18.3409 12.0325 18.1478 12.3323 18.0198L21.1323 14.249C21.3986 14.1303 21.6858 14.0657 21.9773 14.059C22.2688 14.0523 22.5587 14.1036 22.8301 14.2099C23.1016 14.3162 23.3492 14.4754 23.5586 14.6783C23.768 14.8811 23.935 15.1236 24.0499 15.3915C24.1648 15.6595 24.2253 15.9476 24.2278 16.2391C24.2304 16.5307 24.175 16.8198 24.0648 17.0897C23.9546 17.3597 23.7919 17.605 23.5861 17.8115C23.3803 18.018 23.1355 18.1815 22.8659 18.2926L16.8665 20.8666L21.1345 22.6948C21.4081 22.8119 21.7026 22.8722 22.0002 22.8722C22.2978 22.8722 22.5923 22.8119 22.8659 22.6948L38.2659 16.0948C38.6615 15.9251 38.9985 15.6431 39.2354 15.2837C39.4723 14.9243 39.5985 14.5034 39.5985 14.073C39.5985 13.6425 39.4723 13.2216 39.2354 12.8622C38.9985 12.5028 38.6615 12.2208 38.2659 12.0512L22.8659 5.45115V5.44895ZM7.28111 21.5464L10.9991 23.137V32.1614C10.2374 31.9881 9.46601 31.8603 8.68911 31.7786C8.18783 31.7259 7.71984 31.5026 7.36343 31.1462C7.00701 30.7898 6.78379 30.3218 6.73111 29.8206C6.44179 27.0506 6.6278 24.2515 7.28111 21.5442V21.5464ZM20.4591 37.3335C18.9719 35.8743 17.2644 34.6583 15.3991 33.73V25.0246L19.3987 26.7406C20.2204 27.0928 21.1051 27.2744 21.9991 27.2744C22.8931 27.2744 23.7778 27.0928 24.5995 26.7406L36.7171 21.5464C37.3743 24.2531 37.5603 27.0528 37.2671 29.8228C37.2144 30.324 36.9912 30.792 36.6348 31.1484C36.2784 31.5048 35.8104 31.7281 35.3091 31.7808C30.8707 32.2472 26.7215 34.2047 23.5391 37.3335C23.1279 37.7366 22.575 37.9624 21.9991 37.9624C21.4233 37.9624 20.8704 37.7366 20.4591 37.3335ZM13.1991 40.4729C13.7826 40.4729 14.3422 40.2412 14.7547 39.8286C15.1673 39.416 15.3991 38.8564 15.3991 38.2729V33.73C13.9999 33.0348 12.5228 32.509 10.9991 32.1635V38.2729C10.9991 38.8564 11.2309 39.416 11.6435 39.8286C12.0561 40.2412 12.6156 40.4729 13.1991 40.4729Z" fill="url(#paint0_linear_673_20536)" />
	<defs>
		<linearGradient id="paint0_linear_673_20536" x1="23.7078" y1="40.473" x2="18.9077" y2="5.91048" gradientUnits="userSpaceOnUse">
			<stop stop-color="#54AB72" />
			<stop offset="1" stop-color="#4E9447" />
		</linearGradient>
	</defs>
</svg>
