<svg xmlns="http://www.w3.org/2000/svg" width="24" height="25" viewBox="0 0 24 25" fill="none">
	<path d="M16.017 2.66309H7.947C6.37015 2.66494 4.85844 3.29223 3.74353 4.40732C2.62862 5.52242 2.00159 7.03424 2 8.61109L2 16.6811C2.00185 18.2579 2.62914 19.7696 3.74424 20.8846C4.85933 21.9995 6.37115 22.6265 7.948 22.6281H16.018C17.5948 22.6262 19.1066 21.9989 20.2215 20.8839C21.3364 19.7688 21.9634 18.2569 21.965 16.6801V8.61009C21.9631 7.03324 21.3359 5.52152 20.2208 4.40662C19.1057 3.29171 17.5938 2.66467 16.017 2.66309V2.66309ZM19.957 16.6801C19.957 17.1975 19.8551 17.7098 19.6571 18.1879C19.4591 18.6659 19.1689 19.1002 18.803 19.4661C18.4371 19.8319 18.0028 20.1222 17.5248 20.3202C17.0468 20.5182 16.5344 20.6201 16.017 20.6201H7.947C6.90222 20.6198 5.90032 20.2046 5.16165 19.4657C4.42297 18.7269 4.008 17.7249 4.008 16.6801V8.61009C4.00827 7.56531 4.42349 6.56341 5.16235 5.82473C5.90122 5.08605 6.90322 4.67109 7.948 4.67109H16.018C17.0628 4.67135 18.0647 5.08657 18.8034 5.82544C19.542 6.5643 19.957 7.56631 19.957 8.61109V16.6811V16.6801Z" fill="#F9FAFB" />
	<path d="M11.9823 7.48206C10.6137 7.48417 9.30184 8.02884 8.33421 8.99666C7.36658 9.96448 6.82216 11.2765 6.82031 12.6451C6.8219 14.014 7.36634 15.3264 8.33421 16.2944C9.30209 17.2625 10.6144 17.8072 11.9833 17.8091C13.3524 17.8075 14.665 17.2629 15.6331 16.2948C16.6012 15.3267 17.1457 14.0141 17.1473 12.6451C17.1452 11.2761 16.6003 9.96394 15.632 8.99625C14.6637 8.02856 13.3512 7.48438 11.9823 7.48306V7.48206ZM11.9823 15.8011C11.1456 15.8011 10.3431 15.4687 9.75139 14.877C9.15971 14.2853 8.82731 13.4828 8.82731 12.6461C8.82731 11.8093 9.15971 11.0068 9.75139 10.4151C10.3431 9.82346 11.1456 9.49106 11.9823 9.49106C12.8191 9.49106 13.6216 9.82346 14.2132 10.4151C14.8049 11.0068 15.1373 11.8093 15.1373 12.6461C15.1373 13.4828 14.8049 14.2853 14.2132 14.877C13.6216 15.4687 12.8191 15.8011 11.9823 15.8011Z" fill="#F9FAFB" />
	<path d="M17.155 8.75806C17.8381 8.75806 18.392 8.20423 18.392 7.52106C18.392 6.83788 17.8381 6.28406 17.155 6.28406C16.4718 6.28406 15.918 6.83788 15.918 7.52106C15.918 8.20423 16.4718 8.75806 17.155 8.75806Z" fill="#F9FAFB" />
</svg>
