<svg xmlns="http://www.w3.org/2000/svg" width="24" height="25" viewBox="0 0 24 25" fill="none">
	<path d="M21.959 14.3821V21.7611H17.681V14.8761C17.681 13.1461 17.062 11.9661 15.514 11.9661C14.332 11.9661 13.628 12.7621 13.319 13.5311C13.206 13.8061 13.177 14.1891 13.177 14.5741V21.7611H8.897C8.897 21.7611 8.955 10.1011 8.897 8.89209H13.177V10.7161L13.149 10.7581H13.177V10.7161C13.745 9.84109 14.76 8.59009 17.033 8.59009C19.848 8.59009 21.959 10.4301 21.959 14.3821ZM4.421 2.68909C2.958 2.68909 2 3.64909 2 4.91209C2 6.14709 2.93 7.13609 4.365 7.13609H4.393C5.886 7.13609 6.813 6.14709 6.813 4.91209C6.787 3.64909 5.887 2.68909 4.422 2.68909H4.421ZM2.254 21.7611H6.532V8.89209H2.254V21.7611Z" fill="#F9FAFB" />
</svg>
