<svg xmlns="http://www.w3.org/2000/svg" width="20" height="21" viewBox="0 0 20 21" fill="none">
	<path d="M9.62787 8.40282L12.292 10.1795C12.4062 10.2556 12.4997 10.3595 12.5645 10.4805C12.6292 10.6014 12.6631 10.7365 12.6631 10.8737C12.6631 11.0108 12.6292 11.1459 12.5645 11.2668C12.4997 11.3878 12.4062 11.4909 12.292 11.567L9.62787 13.3437C9.50237 13.4274 9.35649 13.4755 9.2058 13.4828C9.05511 13.4901 8.90525 13.4564 8.77223 13.3852C8.6392 13.314 8.528 13.2081 8.45047 13.0787C8.37295 12.9492 8.33201 12.8012 8.33203 12.6503V9.09782C8.33171 8.94681 8.37242 8.79855 8.44983 8.66889C8.52723 8.53922 8.63841 8.43303 8.77149 8.36165C8.90457 8.29028 9.05454 8.25641 9.20538 8.26366C9.35622 8.27091 9.50225 8.31901 9.62787 8.40282Z" fill="url(#paint0_linear_964_4000)" stroke="url(#paint1_linear_964_4000)" stroke-width="2" stroke-linecap="round" stroke-linejoin="round" />
	<path d="M16.9291 13.7432C17.306 12.8332 17.5 11.858 17.5 10.873C17.5 8.88392 16.7098 6.97627 15.3033 5.56975C13.8968 4.16322 11.9891 3.37305 10 3.37305C8.01088 3.37305 6.10322 4.16322 4.6967 5.56975C3.29018 6.97627 2.5 8.88392 2.5 10.873C2.5 11.858 2.69399 12.8332 3.0709 13.7432C3.44781 14.6531 4.00026 15.4799 4.6967 16.1763C5.39314 16.8728 6.21993 17.4252 7.12987 17.8021C8.03982 18.1791 9.01509 18.373 10 18.373C10.9849 18.373 11.9602 18.1791 12.8701 17.8021C13.7801 17.4252 14.6069 16.8728 15.3033 16.1763C15.9997 15.4799 16.5522 14.6531 16.9291 13.7432Z" stroke="url(#paint2_linear_964_4000)" stroke-width="2" stroke-linecap="round" stroke-linejoin="round" />
	<defs>
		<linearGradient id="paint0_linear_964_4000" x1="10.7081" y1="13.4838" x2="9.85708" y2="8.40115" gradientUnits="userSpaceOnUse">
			<stop stop-color="#54AB72" />
			<stop offset="1" stop-color="#4E9447" />
		</linearGradient>
		<linearGradient id="paint1_linear_964_4000" x1="10.7081" y1="13.4838" x2="9.85708" y2="8.40115" gradientUnits="userSpaceOnUse">
			<stop stop-color="#54AB72" />
			<stop offset="1" stop-color="#4E9447" />
		</linearGradient>
		<linearGradient id="paint2_linear_964_4000" x1="10.7292" y1="18.373" x2="8.68367" y2="3.64557" gradientUnits="userSpaceOnUse">
			<stop stop-color="#54AB72" />
			<stop offset="1" stop-color="#4E9447" />
		</linearGradient>
	</defs>
</svg>
