<svg width="21" height="21" viewBox="0 0 21 21" fill="none" xmlns="http://www.w3.org/2000/svg">
<g id="Sparkle">
<path id="Vector" opacity="0.2" d="M15.3193 12.7036L11.2834 14.188C11.1994 14.2188 11.123 14.2675 11.0598 14.3308C10.9965 14.394 10.9478 14.4704 10.917 14.5544L9.43261 18.5903C9.38881 18.709 9.30968 18.8114 9.2059 18.8837C9.10211 18.956 8.97865 18.9948 8.85215 18.9948C8.72565 18.9948 8.60218 18.956 8.4984 18.8837C8.39461 18.8114 8.31548 18.709 8.27168 18.5903L6.7873 14.5544C6.75653 14.4704 6.70781 14.394 6.64453 14.3308C6.58125 14.2675 6.50493 14.2188 6.4209 14.188L2.38496 12.7036C2.26628 12.6598 2.16389 12.5807 2.09156 12.4769C2.01924 12.3731 1.98047 12.2496 1.98047 12.1231C1.98047 11.9966 2.01924 11.8732 2.09156 11.7694C2.16389 11.6656 2.26628 11.5865 2.38496 11.5427L6.4209 10.0583C6.50493 10.0275 6.58125 9.9788 6.64453 9.91552C6.70781 9.85224 6.75653 9.77593 6.7873 9.69189L8.27168 5.65595C8.31548 5.53728 8.39461 5.43488 8.4984 5.36256C8.60218 5.29024 8.72565 5.25146 8.85215 5.25146C8.97865 5.25146 9.10211 5.29024 9.2059 5.36256C9.30968 5.43488 9.38881 5.53728 9.43261 5.65595L10.917 9.69189C10.9478 9.77593 10.9965 9.85224 11.0598 9.91552C11.123 9.9788 11.1994 10.0275 11.2834 10.0583L15.3193 11.5427C15.438 11.5865 15.5404 11.6656 15.6127 11.7694C15.6851 11.8732 15.7238 11.9966 15.7238 12.1231C15.7238 12.2496 15.6851 12.3731 15.6127 12.4769C15.5404 12.5807 15.438 12.6598 15.3193 12.7036Z" fill="#6C39D7"/>
<path id="Vector_2" d="M15.5336 10.9559L11.5016 9.47148L10.0172 5.43633C9.92934 5.19752 9.7703 4.99143 9.56158 4.84585C9.35287 4.70027 9.10452 4.62221 8.85005 4.62221C8.59558 4.62221 8.34723 4.70027 8.13852 4.84585C7.92981 4.99143 7.77077 5.19752 7.68286 5.43633L6.19693 9.4668L2.16177 10.9512C1.92296 11.0391 1.71687 11.1981 1.57129 11.4068C1.42571 11.6155 1.34766 11.8639 1.34766 12.1184C1.34766 12.3728 1.42571 12.6212 1.57129 12.8299C1.71687 13.0386 1.92296 13.1976 2.16177 13.2855L6.19146 14.7793L7.67583 18.8121C7.76374 19.0509 7.92277 19.257 8.13149 19.4026C8.3402 19.5482 8.58855 19.6262 8.84302 19.6262C9.09749 19.6262 9.34584 19.5482 9.55455 19.4026C9.76327 19.257 9.9223 19.0509 10.0102 18.8121L11.4946 14.7801L15.5297 13.2957C15.7685 13.2078 15.9746 13.0488 16.1202 12.84C16.2658 12.6313 16.3439 12.383 16.3439 12.1285C16.3439 11.874 16.2658 11.6257 16.1202 11.417C15.9746 11.2083 15.7685 11.0492 15.5297 10.9613L15.5336 10.9559ZM11.0657 13.6074C10.8968 13.6694 10.7434 13.7674 10.6162 13.8946C10.489 14.0219 10.391 14.1752 10.329 14.3441L8.84458 18.3645L7.36333 14.341C7.30129 14.173 7.20359 14.0204 7.07695 13.8938C6.95032 13.7672 6.79774 13.6695 6.62974 13.6074L2.60943 12.123L6.62974 10.6387C6.79774 10.5766 6.95032 10.4789 7.07695 10.3523C7.20359 10.2257 7.30129 10.0731 7.36333 9.90508L8.84771 5.88477L10.3321 9.90508C10.3941 10.074 10.4921 10.2274 10.6193 10.3546C10.7465 10.4818 10.8999 10.5798 11.0688 10.6418L15.0891 12.1262L11.0657 13.6074ZM11.3477 3.99805C11.3477 3.83229 11.4136 3.67332 11.5308 3.55611C11.648 3.43889 11.8069 3.37305 11.9727 3.37305H13.2227V2.12305C13.2227 1.95729 13.2886 1.79832 13.4058 1.68111C13.523 1.56389 13.6819 1.49805 13.8477 1.49805C14.0135 1.49805 14.1724 1.56389 14.2896 1.68111C14.4069 1.79832 14.4727 1.95729 14.4727 2.12305V3.37305H15.7227C15.8885 3.37305 16.0474 3.43889 16.1646 3.55611C16.2819 3.67332 16.3477 3.83229 16.3477 3.99805C16.3477 4.16381 16.2819 4.32278 16.1646 4.43999C16.0474 4.5572 15.8885 4.62305 15.7227 4.62305H14.4727V5.87305C14.4727 6.03881 14.4069 6.19778 14.2896 6.31499C14.1724 6.4322 14.0135 6.49805 13.8477 6.49805C13.6819 6.49805 13.523 6.4322 13.4058 6.31499C13.2886 6.19778 13.2227 6.03881 13.2227 5.87305V4.62305H11.9727C11.8069 4.62305 11.648 4.5572 11.5308 4.43999C11.4136 4.32278 11.3477 4.16381 11.3477 3.99805ZM19.4727 7.74805C19.4727 7.91381 19.4069 8.07278 19.2896 8.18999C19.1724 8.3072 19.0135 8.37305 18.8477 8.37305H18.2227V8.99805C18.2227 9.16381 18.1569 9.32278 18.0396 9.43999C17.9224 9.5572 17.7635 9.62305 17.5977 9.62305C17.4319 9.62305 17.273 9.5572 17.1558 9.43999C17.0386 9.32278 16.9727 9.16381 16.9727 8.99805V8.37305H16.3477C16.1819 8.37305 16.023 8.3072 15.9058 8.18999C15.7886 8.07278 15.7227 7.91381 15.7227 7.74805C15.7227 7.58229 15.7886 7.42332 15.9058 7.30611C16.023 7.1889 16.1819 7.12305 16.3477 7.12305H16.9727V6.49805C16.9727 6.33229 17.0386 6.17332 17.1558 6.05611C17.273 5.9389 17.4319 5.87305 17.5977 5.87305C17.7635 5.87305 17.9224 5.9389 18.0396 6.05611C18.1569 6.17332 18.2227 6.33229 18.2227 6.49805V7.12305H18.8477C19.0135 7.12305 19.1724 7.1889 19.2896 7.30611C19.4069 7.42332 19.4727 7.58229 19.4727 7.74805Z" fill="#6C39D7"/>
</g>
</svg>
