<svg width="233" height="266" viewBox="0 0 233 266" fill="none" xmlns="http://www.w3.org/2000/svg">
	<path d="M8.9349 8.47314V5.13981C8.9349 4.963 8.86466 4.79343 8.73963 4.66841C8.61461 4.54338 8.44504 4.47314 8.26823 4.47314C8.09142 4.47314 7.92185 4.54338 7.79682 4.66841C7.6718 4.79343 7.60156 4.963 7.60156 5.13981V8.47314H4.26823C4.09142 8.47314 3.92185 8.54338 3.79682 8.66841C3.6718 8.79343 3.60156 8.963 3.60156 9.13981C3.60156 9.31662 3.6718 9.48619 3.79682 9.61122C3.92185 9.73624 4.09142 9.80648 4.26823 9.80648H7.60156V13.1398C7.60156 13.3166 7.6718 13.4862 7.79682 13.6112C7.92185 13.7362 8.09142 13.8065 8.26823 13.8065C8.44504 13.8065 8.61461 13.7362 8.73963 13.6112C8.86466 13.4862 8.9349 13.3166 8.9349 13.1398V9.80648H12.2682C12.445 9.80648 12.6146 9.73624 12.7396 9.61122C12.8647 9.48619 12.9349 9.31662 12.9349 9.13981C12.9349 8.963 12.8647 8.79343 12.7396 8.66841C12.6146 8.54338 12.445 8.47314 12.2682 8.47314H8.9349Z" fill="#E2E8F0" />
	<path d="M40.9349 8.47314V5.13981C40.9349 4.963 40.8647 4.79343 40.7396 4.66841C40.6146 4.54338 40.445 4.47314 40.2682 4.47314C40.0914 4.47314 39.9218 4.54338 39.7968 4.66841C39.6718 4.79343 39.6016 4.963 39.6016 5.13981V8.47314H36.2682C36.0914 8.47314 35.9218 8.54338 35.7968 8.66841C35.6718 8.79343 35.6016 8.963 35.6016 9.13981C35.6016 9.31662 35.6718 9.48619 35.7968 9.61122C35.9218 9.73624 36.0914 9.80648 36.2682 9.80648H39.6016V13.1398C39.6016 13.3166 39.6718 13.4862 39.7968 13.6112C39.9218 13.7362 40.0914 13.8065 40.2682 13.8065C40.445 13.8065 40.6146 13.7362 40.7396 13.6112C40.8647 13.4862 40.9349 13.3166 40.9349 13.1398V9.80648H44.2682C44.445 9.80648 44.6146 9.73624 44.7396 9.61122C44.8647 9.48619 44.9349 9.31662 44.9349 9.13981C44.9349 8.963 44.8647 8.79343 44.7396 8.66841C44.6146 8.54338 44.445 8.47314 44.2682 8.47314H40.9349Z" fill="#E2E8F0" />
	<path d="M72.9349 8.47314V5.13981C72.9349 4.963 72.8647 4.79343 72.7396 4.66841C72.6146 4.54338 72.445 4.47314 72.2682 4.47314C72.0914 4.47314 71.9218 4.54338 71.7968 4.66841C71.6718 4.79343 71.6016 4.963 71.6016 5.13981V8.47314H68.2682C68.0914 8.47314 67.9218 8.54338 67.7968 8.66841C67.6718 8.79343 67.6016 8.963 67.6016 9.13981C67.6016 9.31662 67.6718 9.48619 67.7968 9.61122C67.9218 9.73624 68.0914 9.80648 68.2682 9.80648H71.6016V13.1398C71.6016 13.3166 71.6718 13.4862 71.7968 13.6112C71.9218 13.7362 72.0914 13.8065 72.2682 13.8065C72.445 13.8065 72.6146 13.7362 72.7396 13.6112C72.8647 13.4862 72.9349 13.3166 72.9349 13.1398V9.80648H76.2682C76.445 9.80648 76.6146 9.73624 76.7396 9.61122C76.8647 9.48619 76.9349 9.31662 76.9349 9.13981C76.9349 8.963 76.8647 8.79343 76.7396 8.66841C76.6146 8.54338 76.445 8.47314 76.2682 8.47314H72.9349Z" fill="#E2E8F0" />
	<path d="M104.935 8.47314V5.13981C104.935 4.963 104.865 4.79343 104.74 4.66841C104.615 4.54338 104.445 4.47314 104.268 4.47314C104.091 4.47314 103.922 4.54338 103.797 4.66841C103.672 4.79343 103.602 4.963 103.602 5.13981V8.47314H100.268C100.091 8.47314 99.9218 8.54338 99.7968 8.66841C99.6718 8.79343 99.6016 8.963 99.6016 9.13981C99.6016 9.31662 99.6718 9.48619 99.7968 9.61122C99.9218 9.73624 100.091 9.80648 100.268 9.80648H103.602V13.1398C103.602 13.3166 103.672 13.4862 103.797 13.6112C103.922 13.7362 104.091 13.8065 104.268 13.8065C104.445 13.8065 104.615 13.7362 104.74 13.6112C104.865 13.4862 104.935 13.3166 104.935 13.1398V9.80648H108.268C108.445 9.80648 108.615 9.73624 108.74 9.61122C108.865 9.48619 108.935 9.31662 108.935 9.13981C108.935 8.963 108.865 8.79343 108.74 8.66841C108.615 8.54338 108.445 8.47314 108.268 8.47314H104.935Z" fill="#E2E8F0" />
	<path d="M136.935 8.47314V5.13981C136.935 4.963 136.865 4.79343 136.74 4.66841C136.615 4.54338 136.445 4.47314 136.268 4.47314C136.091 4.47314 135.922 4.54338 135.797 4.66841C135.672 4.79343 135.602 4.963 135.602 5.13981V8.47314H132.268C132.091 8.47314 131.922 8.54338 131.797 8.66841C131.672 8.79343 131.602 8.963 131.602 9.13981C131.602 9.31662 131.672 9.48619 131.797 9.61122C131.922 9.73624 132.091 9.80648 132.268 9.80648H135.602V13.1398C135.602 13.3166 135.672 13.4862 135.797 13.6112C135.922 13.7362 136.091 13.8065 136.268 13.8065C136.445 13.8065 136.615 13.7362 136.74 13.6112C136.865 13.4862 136.935 13.3166 136.935 13.1398V9.80648H140.268C140.445 9.80648 140.615 9.73624 140.74 9.61122C140.865 9.48619 140.935 9.31662 140.935 9.13981C140.935 8.963 140.865 8.79343 140.74 8.66841C140.615 8.54338 140.445 8.47314 140.268 8.47314H136.935Z" fill="#E2E8F0" />
	<path d="M8.9349 40.4731V37.1398C8.9349 36.963 8.86466 36.7934 8.73963 36.6684C8.61461 36.5434 8.44504 36.4731 8.26823 36.4731C8.09142 36.4731 7.92185 36.5434 7.79682 36.6684C7.6718 36.7934 7.60156 36.963 7.60156 37.1398V40.4731H4.26823C4.09142 40.4731 3.92185 40.5434 3.79682 40.6684C3.6718 40.7934 3.60156 40.963 3.60156 41.1398C3.60156 41.3166 3.6718 41.4862 3.79682 41.6112C3.92185 41.7362 4.09142 41.8065 4.26823 41.8065H7.60156V45.1398C7.60156 45.3166 7.6718 45.4862 7.79682 45.6112C7.92185 45.7362 8.09142 45.8065 8.26823 45.8065C8.44504 45.8065 8.61461 45.7362 8.73963 45.6112C8.86466 45.4862 8.9349 45.3166 8.9349 45.1398V41.8065H12.2682C12.445 41.8065 12.6146 41.7362 12.7396 41.6112C12.8647 41.4862 12.9349 41.3166 12.9349 41.1398C12.9349 40.963 12.8647 40.7934 12.7396 40.6684C12.6146 40.5434 12.445 40.4731 12.2682 40.4731H8.9349Z" fill="#E2E8F0" />
	<path d="M40.9349 40.4731V37.1398C40.9349 36.963 40.8647 36.7934 40.7396 36.6684C40.6146 36.5434 40.445 36.4731 40.2682 36.4731C40.0914 36.4731 39.9218 36.5434 39.7968 36.6684C39.6718 36.7934 39.6016 36.963 39.6016 37.1398V40.4731H36.2682C36.0914 40.4731 35.9218 40.5434 35.7968 40.6684C35.6718 40.7934 35.6016 40.963 35.6016 41.1398C35.6016 41.3166 35.6718 41.4862 35.7968 41.6112C35.9218 41.7362 36.0914 41.8065 36.2682 41.8065H39.6016V45.1398C39.6016 45.3166 39.6718 45.4862 39.7968 45.6112C39.9218 45.7362 40.0914 45.8065 40.2682 45.8065C40.445 45.8065 40.6146 45.7362 40.7396 45.6112C40.8647 45.4862 40.9349 45.3166 40.9349 45.1398V41.8065H44.2682C44.445 41.8065 44.6146 41.7362 44.7396 41.6112C44.8647 41.4862 44.9349 41.3166 44.9349 41.1398C44.9349 40.963 44.8647 40.7934 44.7396 40.6684C44.6146 40.5434 44.445 40.4731 44.2682 40.4731H40.9349Z" fill="#E2E8F0" />
	<path d="M72.9349 40.4731V37.1398C72.9349 36.963 72.8647 36.7934 72.7396 36.6684C72.6146 36.5434 72.445 36.4731 72.2682 36.4731C72.0914 36.4731 71.9218 36.5434 71.7968 36.6684C71.6718 36.7934 71.6016 36.963 71.6016 37.1398V40.4731H68.2682C68.0914 40.4731 67.9218 40.5434 67.7968 40.6684C67.6718 40.7934 67.6016 40.963 67.6016 41.1398C67.6016 41.3166 67.6718 41.4862 67.7968 41.6112C67.9218 41.7362 68.0914 41.8065 68.2682 41.8065H71.6016V45.1398C71.6016 45.3166 71.6718 45.4862 71.7968 45.6112C71.9218 45.7362 72.0914 45.8065 72.2682 45.8065C72.445 45.8065 72.6146 45.7362 72.7396 45.6112C72.8647 45.4862 72.9349 45.3166 72.9349 45.1398V41.8065H76.2682C76.445 41.8065 76.6146 41.7362 76.7396 41.6112C76.8647 41.4862 76.9349 41.3166 76.9349 41.1398C76.9349 40.963 76.8647 40.7934 76.7396 40.6684C76.6146 40.5434 76.445 40.4731 76.2682 40.4731H72.9349Z" fill="#E2E8F0" />
	<path d="M104.935 40.4731V37.1398C104.935 36.963 104.865 36.7934 104.74 36.6684C104.615 36.5434 104.445 36.4731 104.268 36.4731C104.091 36.4731 103.922 36.5434 103.797 36.6684C103.672 36.7934 103.602 36.963 103.602 37.1398V40.4731H100.268C100.091 40.4731 99.9218 40.5434 99.7968 40.6684C99.6718 40.7934 99.6016 40.963 99.6016 41.1398C99.6016 41.3166 99.6718 41.4862 99.7968 41.6112C99.9218 41.7362 100.091 41.8065 100.268 41.8065H103.602V45.1398C103.602 45.3166 103.672 45.4862 103.797 45.6112C103.922 45.7362 104.091 45.8065 104.268 45.8065C104.445 45.8065 104.615 45.7362 104.74 45.6112C104.865 45.4862 104.935 45.3166 104.935 45.1398V41.8065H108.268C108.445 41.8065 108.615 41.7362 108.74 41.6112C108.865 41.4862 108.935 41.3166 108.935 41.1398C108.935 40.963 108.865 40.7934 108.74 40.6684C108.615 40.5434 108.445 40.4731 108.268 40.4731H104.935Z" fill="#2563EB" />
	<path d="M136.935 40.4731V37.1398C136.935 36.963 136.865 36.7934 136.74 36.6684C136.615 36.5434 136.445 36.4731 136.268 36.4731C136.091 36.4731 135.922 36.5434 135.797 36.6684C135.672 36.7934 135.602 36.963 135.602 37.1398V40.4731H132.268C132.091 40.4731 131.922 40.5434 131.797 40.6684C131.672 40.7934 131.602 40.963 131.602 41.1398C131.602 41.3166 131.672 41.4862 131.797 41.6112C131.922 41.7362 132.091 41.8065 132.268 41.8065H135.602V45.1398C135.602 45.3166 135.672 45.4862 135.797 45.6112C135.922 45.7362 136.091 45.8065 136.268 45.8065C136.445 45.8065 136.615 45.7362 136.74 45.6112C136.865 45.4862 136.935 45.3166 136.935 45.1398V41.8065H140.268C140.445 41.8065 140.615 41.7362 140.74 41.6112C140.865 41.4862 140.935 41.3166 140.935 41.1398C140.935 40.963 140.865 40.7934 140.74 40.6684C140.615 40.5434 140.445 40.4731 140.268 40.4731H136.935Z" fill="#E2E8F0" />
	<path d="M8.9349 72.4731V69.1398C8.9349 68.963 8.86466 68.7934 8.73963 68.6684C8.61461 68.5434 8.44504 68.4731 8.26823 68.4731C8.09142 68.4731 7.92185 68.5434 7.79682 68.6684C7.6718 68.7934 7.60156 68.963 7.60156 69.1398V72.4731H4.26823C4.09142 72.4731 3.92185 72.5434 3.79682 72.6684C3.6718 72.7934 3.60156 72.963 3.60156 73.1398C3.60156 73.3166 3.6718 73.4862 3.79682 73.6112C3.92185 73.7362 4.09142 73.8065 4.26823 73.8065H7.60156V77.1398C7.60156 77.3166 7.6718 77.4862 7.79682 77.6112C7.92185 77.7362 8.09142 77.8065 8.26823 77.8065C8.44504 77.8065 8.61461 77.7362 8.73963 77.6112C8.86466 77.4862 8.9349 77.3166 8.9349 77.1398V73.8065H12.2682C12.445 73.8065 12.6146 73.7362 12.7396 73.6112C12.8647 73.4862 12.9349 73.3166 12.9349 73.1398C12.9349 72.963 12.8647 72.7934 12.7396 72.6684C12.6146 72.5434 12.445 72.4731 12.2682 72.4731H8.9349Z" fill="#E2E8F0" />
	<path d="M40.9349 72.4731V69.1398C40.9349 68.963 40.8647 68.7934 40.7396 68.6684C40.6146 68.5434 40.445 68.4731 40.2682 68.4731C40.0914 68.4731 39.9218 68.5434 39.7968 68.6684C39.6718 68.7934 39.6016 68.963 39.6016 69.1398V72.4731H36.2682C36.0914 72.4731 35.9218 72.5434 35.7968 72.6684C35.6718 72.7934 35.6016 72.963 35.6016 73.1398C35.6016 73.3166 35.6718 73.4862 35.7968 73.6112C35.9218 73.7362 36.0914 73.8065 36.2682 73.8065H39.6016V77.1398C39.6016 77.3166 39.6718 77.4862 39.7968 77.6112C39.9218 77.7362 40.0914 77.8065 40.2682 77.8065C40.445 77.8065 40.6146 77.7362 40.7396 77.6112C40.8647 77.4862 40.9349 77.3166 40.9349 77.1398V73.8065H44.2682C44.445 73.8065 44.6146 73.7362 44.7396 73.6112C44.8647 73.4862 44.9349 73.3166 44.9349 73.1398C44.9349 72.963 44.8647 72.7934 44.7396 72.6684C44.6146 72.5434 44.445 72.4731 44.2682 72.4731H40.9349Z" fill="#E2E8F0" />
	<path d="M72.9349 72.4731V69.1398C72.9349 68.963 72.8647 68.7934 72.7396 68.6684C72.6146 68.5434 72.445 68.4731 72.2682 68.4731C72.0914 68.4731 71.9218 68.5434 71.7968 68.6684C71.6718 68.7934 71.6016 68.963 71.6016 69.1398V72.4731H68.2682C68.0914 72.4731 67.9218 72.5434 67.7968 72.6684C67.6718 72.7934 67.6016 72.963 67.6016 73.1398C67.6016 73.3166 67.6718 73.4862 67.7968 73.6112C67.9218 73.7362 68.0914 73.8065 68.2682 73.8065H71.6016V77.1398C71.6016 77.3166 71.6718 77.4862 71.7968 77.6112C71.9218 77.7362 72.0914 77.8065 72.2682 77.8065C72.445 77.8065 72.6146 77.7362 72.7396 77.6112C72.8647 77.4862 72.9349 77.3166 72.9349 77.1398V73.8065H76.2682C76.445 73.8065 76.6146 73.7362 76.7396 73.6112C76.8647 73.4862 76.9349 73.3166 76.9349 73.1398C76.9349 72.963 76.8647 72.7934 76.7396 72.6684C76.6146 72.5434 76.445 72.4731 76.2682 72.4731H72.9349Z" fill="#E2E8F0" />
	<path d="M104.935 72.4731V69.1398C104.935 68.963 104.865 68.7934 104.74 68.6684C104.615 68.5434 104.445 68.4731 104.268 68.4731C104.091 68.4731 103.922 68.5434 103.797 68.6684C103.672 68.7934 103.602 68.963 103.602 69.1398V72.4731H100.268C100.091 72.4731 99.9218 72.5434 99.7968 72.6684C99.6718 72.7934 99.6016 72.963 99.6016 73.1398C99.6016 73.3166 99.6718 73.4862 99.7968 73.6112C99.9218 73.7362 100.091 73.8065 100.268 73.8065H103.602V77.1398C103.602 77.3166 103.672 77.4862 103.797 77.6112C103.922 77.7362 104.091 77.8065 104.268 77.8065C104.445 77.8065 104.615 77.7362 104.74 77.6112C104.865 77.4862 104.935 77.3166 104.935 77.1398V73.8065H108.268C108.445 73.8065 108.615 73.7362 108.74 73.6112C108.865 73.4862 108.935 73.3166 108.935 73.1398C108.935 72.963 108.865 72.7934 108.74 72.6684C108.615 72.5434 108.445 72.4731 108.268 72.4731H104.935Z" fill="#E2E8F0" />
	<path d="M136.935 72.4731V69.1398C136.935 68.963 136.865 68.7934 136.74 68.6684C136.615 68.5434 136.445 68.4731 136.268 68.4731C136.091 68.4731 135.922 68.5434 135.797 68.6684C135.672 68.7934 135.602 68.963 135.602 69.1398V72.4731H132.268C132.091 72.4731 131.922 72.5434 131.797 72.6684C131.672 72.7934 131.602 72.963 131.602 73.1398C131.602 73.3166 131.672 73.4862 131.797 73.6112C131.922 73.7362 132.091 73.8065 132.268 73.8065H135.602V77.1398C135.602 77.3166 135.672 77.4862 135.797 77.6112C135.922 77.7362 136.091 77.8065 136.268 77.8065C136.445 77.8065 136.615 77.7362 136.74 77.6112C136.865 77.4862 136.935 77.3166 136.935 77.1398V73.8065H140.268C140.445 73.8065 140.615 73.7362 140.74 73.6112C140.865 73.4862 140.935 73.3166 140.935 73.1398C140.935 72.963 140.865 72.7934 140.74 72.6684C140.615 72.5434 140.445 72.4731 140.268 72.4731H136.935Z" fill="#E2E8F0" />
	<path d="M8.9349 104.473V101.14C8.9349 100.963 8.86466 100.793 8.73963 100.668C8.61461 100.543 8.44504 100.473 8.26823 100.473C8.09142 100.473 7.92185 100.543 7.79682 100.668C7.6718 100.793 7.60156 100.963 7.60156 101.14V104.473H4.26823C4.09142 104.473 3.92185 104.543 3.79682 104.668C3.6718 104.793 3.60156 104.963 3.60156 105.14C3.60156 105.317 3.6718 105.486 3.79682 105.611C3.92185 105.736 4.09142 105.806 4.26823 105.806H7.60156V109.14C7.60156 109.317 7.6718 109.486 7.79682 109.611C7.92185 109.736 8.09142 109.806 8.26823 109.806C8.44504 109.806 8.61461 109.736 8.73963 109.611C8.86466 109.486 8.9349 109.317 8.9349 109.14V105.806H12.2682C12.445 105.806 12.6146 105.736 12.7396 105.611C12.8647 105.486 12.9349 105.317 12.9349 105.14C12.9349 104.963 12.8647 104.793 12.7396 104.668C12.6146 104.543 12.445 104.473 12.2682 104.473H8.9349Z" fill="#2563EB" />
	<path d="M40.9349 104.473V101.14C40.9349 100.963 40.8647 100.793 40.7396 100.668C40.6146 100.543 40.445 100.473 40.2682 100.473C40.0914 100.473 39.9218 100.543 39.7968 100.668C39.6718 100.793 39.6016 100.963 39.6016 101.14V104.473H36.2682C36.0914 104.473 35.9218 104.543 35.7968 104.668C35.6718 104.793 35.6016 104.963 35.6016 105.14C35.6016 105.317 35.6718 105.486 35.7968 105.611C35.9218 105.736 36.0914 105.806 36.2682 105.806H39.6016V109.14C39.6016 109.317 39.6718 109.486 39.7968 109.611C39.9218 109.736 40.0914 109.806 40.2682 109.806C40.445 109.806 40.6146 109.736 40.7396 109.611C40.8647 109.486 40.9349 109.317 40.9349 109.14V105.806H44.2682C44.445 105.806 44.6146 105.736 44.7396 105.611C44.8647 105.486 44.9349 105.317 44.9349 105.14C44.9349 104.963 44.8647 104.793 44.7396 104.668C44.6146 104.543 44.445 104.473 44.2682 104.473H40.9349Z" fill="#E2E8F0" />
	<path d="M72.9349 104.473V101.14C72.9349 100.963 72.8647 100.793 72.7396 100.668C72.6146 100.543 72.445 100.473 72.2682 100.473C72.0914 100.473 71.9218 100.543 71.7968 100.668C71.6718 100.793 71.6016 100.963 71.6016 101.14V104.473H68.2682C68.0914 104.473 67.9218 104.543 67.7968 104.668C67.6718 104.793 67.6016 104.963 67.6016 105.14C67.6016 105.317 67.6718 105.486 67.7968 105.611C67.9218 105.736 68.0914 105.806 68.2682 105.806H71.6016V109.14C71.6016 109.317 71.6718 109.486 71.7968 109.611C71.9218 109.736 72.0914 109.806 72.2682 109.806C72.445 109.806 72.6146 109.736 72.7396 109.611C72.8647 109.486 72.9349 109.317 72.9349 109.14V105.806H76.2682C76.445 105.806 76.6146 105.736 76.7396 105.611C76.8647 105.486 76.9349 105.317 76.9349 105.14C76.9349 104.963 76.8647 104.793 76.7396 104.668C76.6146 104.543 76.445 104.473 76.2682 104.473H72.9349Z" fill="#E2E8F0" />
	<path d="M104.935 104.473V101.14C104.935 100.963 104.865 100.793 104.74 100.668C104.615 100.543 104.445 100.473 104.268 100.473C104.091 100.473 103.922 100.543 103.797 100.668C103.672 100.793 103.602 100.963 103.602 101.14V104.473H100.268C100.091 104.473 99.9218 104.543 99.7968 104.668C99.6718 104.793 99.6016 104.963 99.6016 105.14C99.6016 105.317 99.6718 105.486 99.7968 105.611C99.9218 105.736 100.091 105.806 100.268 105.806H103.602V109.14C103.602 109.317 103.672 109.486 103.797 109.611C103.922 109.736 104.091 109.806 104.268 109.806C104.445 109.806 104.615 109.736 104.74 109.611C104.865 109.486 104.935 109.317 104.935 109.14V105.806H108.268C108.445 105.806 108.615 105.736 108.74 105.611C108.865 105.486 108.935 105.317 108.935 105.14C108.935 104.963 108.865 104.793 108.74 104.668C108.615 104.543 108.445 104.473 108.268 104.473H104.935Z" fill="#E2E8F0" />
	<path d="M136.935 104.473V101.14C136.935 100.963 136.865 100.793 136.74 100.668C136.615 100.543 136.445 100.473 136.268 100.473C136.091 100.473 135.922 100.543 135.797 100.668C135.672 100.793 135.602 100.963 135.602 101.14V104.473H132.268C132.091 104.473 131.922 104.543 131.797 104.668C131.672 104.793 131.602 104.963 131.602 105.14C131.602 105.317 131.672 105.486 131.797 105.611C131.922 105.736 132.091 105.806 132.268 105.806H135.602V109.14C135.602 109.317 135.672 109.486 135.797 109.611C135.922 109.736 136.091 109.806 136.268 109.806C136.445 109.806 136.615 109.736 136.74 109.611C136.865 109.486 136.935 109.317 136.935 109.14V105.806H140.268C140.445 105.806 140.615 105.736 140.74 105.611C140.865 105.486 140.935 105.317 140.935 105.14C140.935 104.963 140.865 104.793 140.74 104.668C140.615 104.543 140.445 104.473 140.268 104.473H136.935Z" fill="#EA580C" />
	<path d="M8.9349 136.473V133.14C8.9349 132.963 8.86466 132.793 8.73963 132.668C8.61461 132.543 8.44504 132.473 8.26823 132.473C8.09142 132.473 7.92185 132.543 7.79682 132.668C7.6718 132.793 7.60156 132.963 7.60156 133.14V136.473H4.26823C4.09142 136.473 3.92185 136.543 3.79682 136.668C3.6718 136.793 3.60156 136.963 3.60156 137.14C3.60156 137.317 3.6718 137.486 3.79682 137.611C3.92185 137.736 4.09142 137.806 4.26823 137.806H7.60156V141.14C7.60156 141.317 7.6718 141.486 7.79682 141.611C7.92185 141.736 8.09142 141.806 8.26823 141.806C8.44504 141.806 8.61461 141.736 8.73963 141.611C8.86466 141.486 8.9349 141.317 8.9349 141.14V137.806H12.2682C12.445 137.806 12.6146 137.736 12.7396 137.611C12.8647 137.486 12.9349 137.317 12.9349 137.14C12.9349 136.963 12.8647 136.793 12.7396 136.668C12.6146 136.543 12.445 136.473 12.2682 136.473H8.9349Z" fill="#E2E8F0" />
	<path d="M40.9349 136.473V133.14C40.9349 132.963 40.8647 132.793 40.7396 132.668C40.6146 132.543 40.445 132.473 40.2682 132.473C40.0914 132.473 39.9218 132.543 39.7968 132.668C39.6718 132.793 39.6016 132.963 39.6016 133.14V136.473H36.2682C36.0914 136.473 35.9218 136.543 35.7968 136.668C35.6718 136.793 35.6016 136.963 35.6016 137.14C35.6016 137.317 35.6718 137.486 35.7968 137.611C35.9218 137.736 36.0914 137.806 36.2682 137.806H39.6016V141.14C39.6016 141.317 39.6718 141.486 39.7968 141.611C39.9218 141.736 40.0914 141.806 40.2682 141.806C40.445 141.806 40.6146 141.736 40.7396 141.611C40.8647 141.486 40.9349 141.317 40.9349 141.14V137.806H44.2682C44.445 137.806 44.6146 137.736 44.7396 137.611C44.8647 137.486 44.9349 137.317 44.9349 137.14C44.9349 136.963 44.8647 136.793 44.7396 136.668C44.6146 136.543 44.445 136.473 44.2682 136.473H40.9349Z" fill="#E2E8F0" />
	<path d="M72.9349 136.473V133.14C72.9349 132.963 72.8647 132.793 72.7396 132.668C72.6146 132.543 72.445 132.473 72.2682 132.473C72.0914 132.473 71.9218 132.543 71.7968 132.668C71.6718 132.793 71.6016 132.963 71.6016 133.14V136.473H68.2682C68.0914 136.473 67.9218 136.543 67.7968 136.668C67.6718 136.793 67.6016 136.963 67.6016 137.14C67.6016 137.317 67.6718 137.486 67.7968 137.611C67.9218 137.736 68.0914 137.806 68.2682 137.806H71.6016V141.14C71.6016 141.317 71.6718 141.486 71.7968 141.611C71.9218 141.736 72.0914 141.806 72.2682 141.806C72.445 141.806 72.6146 141.736 72.7396 141.611C72.8647 141.486 72.9349 141.317 72.9349 141.14V137.806H76.2682C76.445 137.806 76.6146 137.736 76.7396 137.611C76.8647 137.486 76.9349 137.317 76.9349 137.14C76.9349 136.963 76.8647 136.793 76.7396 136.668C76.6146 136.543 76.445 136.473 76.2682 136.473H72.9349Z" fill="#E2E8F0" />
	<path d="M104.935 136.473V133.14C104.935 132.963 104.865 132.793 104.74 132.668C104.615 132.543 104.445 132.473 104.268 132.473C104.091 132.473 103.922 132.543 103.797 132.668C103.672 132.793 103.602 132.963 103.602 133.14V136.473H100.268C100.091 136.473 99.9218 136.543 99.7968 136.668C99.6718 136.793 99.6016 136.963 99.6016 137.14C99.6016 137.317 99.6718 137.486 99.7968 137.611C99.9218 137.736 100.091 137.806 100.268 137.806H103.602V141.14C103.602 141.317 103.672 141.486 103.797 141.611C103.922 141.736 104.091 141.806 104.268 141.806C104.445 141.806 104.615 141.736 104.74 141.611C104.865 141.486 104.935 141.317 104.935 141.14V137.806H108.268C108.445 137.806 108.615 137.736 108.74 137.611C108.865 137.486 108.935 137.317 108.935 137.14C108.935 136.963 108.865 136.793 108.74 136.668C108.615 136.543 108.445 136.473 108.268 136.473H104.935Z" fill="#E2E8F0" />
	<path d="M136.935 136.473V133.14C136.935 132.963 136.865 132.793 136.74 132.668C136.615 132.543 136.445 132.473 136.268 132.473C136.091 132.473 135.922 132.543 135.797 132.668C135.672 132.793 135.602 132.963 135.602 133.14V136.473H132.268C132.091 136.473 131.922 136.543 131.797 136.668C131.672 136.793 131.602 136.963 131.602 137.14C131.602 137.317 131.672 137.486 131.797 137.611C131.922 137.736 132.091 137.806 132.268 137.806H135.602V141.14C135.602 141.317 135.672 141.486 135.797 141.611C135.922 141.736 136.091 141.806 136.268 141.806C136.445 141.806 136.615 141.736 136.74 141.611C136.865 141.486 136.935 141.317 136.935 141.14V137.806H140.268C140.445 137.806 140.615 137.736 140.74 137.611C140.865 137.486 140.935 137.317 140.935 137.14C140.935 136.963 140.865 136.793 140.74 136.668C140.615 136.543 140.445 136.473 140.268 136.473H136.935Z" fill="#E2E8F0" />
	<path d="M8.9349 168.473V165.14C8.9349 164.963 8.86466 164.793 8.73963 164.668C8.61461 164.543 8.44504 164.473 8.26823 164.473C8.09142 164.473 7.92185 164.543 7.79682 164.668C7.6718 164.793 7.60156 164.963 7.60156 165.14V168.473H4.26823C4.09142 168.473 3.92185 168.543 3.79682 168.668C3.6718 168.793 3.60156 168.963 3.60156 169.14C3.60156 169.317 3.6718 169.486 3.79682 169.611C3.92185 169.736 4.09142 169.806 4.26823 169.806H7.60156V173.14C7.60156 173.317 7.6718 173.486 7.79682 173.611C7.92185 173.736 8.09142 173.806 8.26823 173.806C8.44504 173.806 8.61461 173.736 8.73963 173.611C8.86466 173.486 8.9349 173.317 8.9349 173.14V169.806H12.2682C12.445 169.806 12.6146 169.736 12.7396 169.611C12.8647 169.486 12.9349 169.317 12.9349 169.14C12.9349 168.963 12.8647 168.793 12.7396 168.668C12.6146 168.543 12.445 168.473 12.2682 168.473H8.9349Z" fill="#E2E8F0" />
	<path d="M40.9349 168.473V165.14C40.9349 164.963 40.8647 164.793 40.7396 164.668C40.6146 164.543 40.445 164.473 40.2682 164.473C40.0914 164.473 39.9218 164.543 39.7968 164.668C39.6718 164.793 39.6016 164.963 39.6016 165.14V168.473H36.2682C36.0914 168.473 35.9218 168.543 35.7968 168.668C35.6718 168.793 35.6016 168.963 35.6016 169.14C35.6016 169.317 35.6718 169.486 35.7968 169.611C35.9218 169.736 36.0914 169.806 36.2682 169.806H39.6016V173.14C39.6016 173.317 39.6718 173.486 39.7968 173.611C39.9218 173.736 40.0914 173.806 40.2682 173.806C40.445 173.806 40.6146 173.736 40.7396 173.611C40.8647 173.486 40.9349 173.317 40.9349 173.14V169.806H44.2682C44.445 169.806 44.6146 169.736 44.7396 169.611C44.8647 169.486 44.9349 169.317 44.9349 169.14C44.9349 168.963 44.8647 168.793 44.7396 168.668C44.6146 168.543 44.445 168.473 44.2682 168.473H40.9349Z" fill="#2563EB" />
	<path d="M72.9349 168.473V165.14C72.9349 164.963 72.8647 164.793 72.7396 164.668C72.6146 164.543 72.445 164.473 72.2682 164.473C72.0914 164.473 71.9218 164.543 71.7968 164.668C71.6718 164.793 71.6016 164.963 71.6016 165.14V168.473H68.2682C68.0914 168.473 67.9218 168.543 67.7968 168.668C67.6718 168.793 67.6016 168.963 67.6016 169.14C67.6016 169.317 67.6718 169.486 67.7968 169.611C67.9218 169.736 68.0914 169.806 68.2682 169.806H71.6016V173.14C71.6016 173.317 71.6718 173.486 71.7968 173.611C71.9218 173.736 72.0914 173.806 72.2682 173.806C72.445 173.806 72.6146 173.736 72.7396 173.611C72.8647 173.486 72.9349 173.317 72.9349 173.14V169.806H76.2682C76.445 169.806 76.6146 169.736 76.7396 169.611C76.8647 169.486 76.9349 169.317 76.9349 169.14C76.9349 168.963 76.8647 168.793 76.7396 168.668C76.6146 168.543 76.445 168.473 76.2682 168.473H72.9349Z" fill="#E2E8F0" />
	<path d="M104.935 168.473V165.14C104.935 164.963 104.865 164.793 104.74 164.668C104.615 164.543 104.445 164.473 104.268 164.473C104.091 164.473 103.922 164.543 103.797 164.668C103.672 164.793 103.602 164.963 103.602 165.14V168.473H100.268C100.091 168.473 99.9218 168.543 99.7968 168.668C99.6718 168.793 99.6016 168.963 99.6016 169.14C99.6016 169.317 99.6718 169.486 99.7968 169.611C99.9218 169.736 100.091 169.806 100.268 169.806H103.602V173.14C103.602 173.317 103.672 173.486 103.797 173.611C103.922 173.736 104.091 173.806 104.268 173.806C104.445 173.806 104.615 173.736 104.74 173.611C104.865 173.486 104.935 173.317 104.935 173.14V169.806H108.268C108.445 169.806 108.615 169.736 108.74 169.611C108.865 169.486 108.935 169.317 108.935 169.14C108.935 168.963 108.865 168.793 108.74 168.668C108.615 168.543 108.445 168.473 108.268 168.473H104.935Z" fill="#E2E8F0" />
	<path d="M136.935 168.473V165.14C136.935 164.963 136.865 164.793 136.74 164.668C136.615 164.543 136.445 164.473 136.268 164.473C136.091 164.473 135.922 164.543 135.797 164.668C135.672 164.793 135.602 164.963 135.602 165.14V168.473H132.268C132.091 168.473 131.922 168.543 131.797 168.668C131.672 168.793 131.602 168.963 131.602 169.14C131.602 169.317 131.672 169.486 131.797 169.611C131.922 169.736 132.091 169.806 132.268 169.806H135.602V173.14C135.602 173.317 135.672 173.486 135.797 173.611C135.922 173.736 136.091 173.806 136.268 173.806C136.445 173.806 136.615 173.736 136.74 173.611C136.865 173.486 136.935 173.317 136.935 173.14V169.806H140.268C140.445 169.806 140.615 169.736 140.74 169.611C140.865 169.486 140.935 169.317 140.935 169.14C140.935 168.963 140.865 168.793 140.74 168.668C140.615 168.543 140.445 168.473 140.268 168.473H136.935Z" fill="#E2E8F0" />
</svg>
