<svg xmlns="http://www.w3.org/2000/svg" width="24" height="25" viewBox="0 0 24 25" fill="none">
	<path d="M22 6.57013C21.2504 6.89751 20.4565 7.11216 19.644 7.20713C20.4968 6.70636 21.138 5.91223 21.448 4.97313C20.64 5.44346 19.7587 5.77473 18.841 5.95313C18.4545 5.54833 17.9897 5.22652 17.4748 5.00731C16.9598 4.7881 16.4056 4.67609 15.846 4.67813C13.58 4.67813 11.743 6.48813 11.743 8.71813C11.743 9.03413 11.779 9.34313 11.849 9.63813C10.2236 9.56082 8.63212 9.14554 7.17617 8.41877C5.72022 7.692 4.43176 6.66971 3.393 5.41713C3.02883 6.03153 2.83742 6.73291 2.839 7.44713C2.8397 8.11509 3.00683 8.77236 3.32529 9.35952C3.64375 9.94668 4.1035 10.4452 4.663 10.8101C4.01248 10.7891 3.37602 10.6155 2.805 10.3031V10.3531C2.805 12.3111 4.22 13.9441 6.095 14.3161C5.74261 14.4096 5.37958 14.457 5.015 14.4571C4.75 14.4571 4.493 14.4321 4.242 14.3821C4.51008 15.1901 5.02311 15.8944 5.70982 16.3975C6.39653 16.9005 7.22284 17.1772 8.074 17.1891C6.61407 18.3137 4.82182 18.9212 2.979 18.9161C2.647 18.9161 2.321 18.8961 2 18.8601C3.88125 20.0508 6.06259 20.6814 8.289 20.6781C15.836 20.6781 19.962 14.5211 19.962 9.18213L19.948 8.65913C20.7529 8.0928 21.4481 7.38497 22 6.57013Z" fill="#F9FAFB" />
</svg>
