<svg xmlns="http://www.w3.org/2000/svg" width="24" height="25" viewBox="0 0 24 25" fill="none">
    <path d="M17.812 5.68008H6.145C3.855 5.68008 2 7.51508 2 9.77908V15.5471C2 17.8111 3.856 19.6471 6.145 19.6471H17.812C20.102 19.6471 21.957 17.8111 21.957 15.5471V9.77908C21.957 7.51508 20.101 5.67908 17.812 5.67908V5.68008ZM15.009 12.9431L9.552 15.5181C9.51872 15.5341 9.48192 15.5414 9.44503 15.5394C9.40815 15.5374 9.37237 15.5261 9.34103 15.5065C9.3097 15.487 9.28382 15.4598 9.2658 15.4276C9.24779 15.3953 9.23822 15.359 9.238 15.3221V10.0131C9.23867 9.97595 9.24872 9.9396 9.26722 9.9074C9.28573 9.87521 9.31208 9.84822 9.34382 9.82895C9.37556 9.80969 9.41167 9.79877 9.44877 9.79722C9.48587 9.79567 9.52276 9.80353 9.556 9.82008L15.014 12.5551C15.0504 12.5732 15.0809 12.6012 15.102 12.6359C15.1232 12.6706 15.1341 12.7105 15.1336 12.7511C15.1331 12.7918 15.1211 12.8314 15.0991 12.8655C15.077 12.8997 15.0458 12.9269 15.009 12.9441V12.9431Z" fill="#F9FAFB"/>
  </svg>